<svg width="967" height="967" viewBox="0 0 967 967" fill="none" xmlns="http://www.w3.org/2000/svg">
<g clip-path="url(#clip0_4071_2401)">
<path d="M483.511 966.468C750.245 966.468 966.475 750.237 966.475 483.504C966.475 216.77 750.245 0.540039 483.511 0.540039C216.778 0.540039 0.547363 216.77 0.547363 483.504C0.547363 750.237 216.778 966.468 483.511 966.468Z" stroke="#E5F3E8" stroke-width="2.41482" stroke-miterlimit="10"/>
<path d="M483.518 941.217C736.307 941.217 941.232 736.291 941.232 483.503C941.232 230.714 736.307 25.7881 483.518 25.7881C230.729 25.7881 25.8032 230.714 25.8032 483.503C25.8032 736.291 230.729 941.217 483.518 941.217Z" stroke="#E5F3E8" stroke-width="2.41482" stroke-miterlimit="10"/>
<path d="M483.507 915.955C722.345 915.955 915.962 722.338 915.962 483.499C915.962 244.661 722.345 51.0439 483.507 51.0439C244.668 51.0439 51.0513 244.661 51.0513 483.499C51.0513 722.338 244.668 915.955 483.507 915.955Z" stroke="#E5F3E8" stroke-width="2.41482" stroke-miterlimit="10"/>
<path d="M483.513 890.712C708.407 890.712 890.72 708.4 890.72 483.506C890.72 258.612 708.407 76.2998 483.513 76.2998C258.62 76.2998 76.3071 258.612 76.3071 483.506C76.3071 708.4 258.62 890.712 483.513 890.712Z" stroke="#E5F3E8" stroke-width="2.41482" stroke-miterlimit="10"/>
<path d="M483.51 865.45C694.454 865.45 865.457 694.446 865.457 483.503C865.457 272.559 694.454 101.556 483.51 101.556C272.567 101.556 101.563 272.559 101.563 483.503C101.563 694.446 272.567 865.45 483.51 865.45Z" stroke="#E5F3E8" stroke-width="2.41482" stroke-miterlimit="10"/>
<path d="M483.509 840.199C680.508 840.199 840.207 680.5 840.207 483.502C840.207 286.503 680.508 126.804 483.509 126.804C286.51 126.804 126.811 286.503 126.811 483.502C126.811 680.5 286.51 840.199 483.509 840.199Z" stroke="#E5F3E8" stroke-width="2.41482" stroke-miterlimit="10"/>
<path d="M483.515 814.949C666.569 814.949 814.964 666.554 814.964 483.5C814.964 300.446 666.569 152.052 483.515 152.052C300.461 152.052 152.067 300.446 152.067 483.5C152.067 666.554 300.461 814.949 483.515 814.949Z" stroke="#E5F3E8" stroke-width="2.41482" stroke-miterlimit="10"/>
<path d="M483.504 789.694C652.608 789.694 789.694 652.608 789.694 483.504C789.694 314.401 652.608 177.315 483.504 177.315C314.401 177.315 177.315 314.401 177.315 483.504C177.315 652.608 314.401 789.694 483.504 789.694Z" stroke="#E5F3E8" stroke-width="2.41482" stroke-miterlimit="10"/>
<path d="M483.511 764.444C638.67 764.444 764.451 638.663 764.451 483.504C764.451 328.345 638.67 202.563 483.511 202.563C328.352 202.563 202.571 328.345 202.571 483.504C202.571 638.663 328.352 764.444 483.511 764.444Z" stroke="#E5F3E8" stroke-width="2.41482" stroke-miterlimit="10"/>
<path d="M483.517 739.193C624.731 739.193 739.208 624.716 739.208 483.502C739.208 342.288 624.731 227.812 483.517 227.812C342.303 227.812 227.826 342.288 227.826 483.502C227.826 624.716 342.303 739.193 483.517 739.193Z" stroke="#E5F3E8" stroke-width="2.41482" stroke-miterlimit="10"/>
<path d="M483.506 713.935C610.77 713.935 713.938 610.767 713.938 483.503C713.938 356.239 610.77 253.071 483.506 253.071C356.243 253.071 253.075 356.239 253.075 483.503C253.075 610.767 356.243 713.935 483.506 713.935Z" stroke="#E5F3E8" stroke-width="2.41482" stroke-miterlimit="10"/>
<path d="M483.513 688.688C596.832 688.688 688.695 596.825 688.695 483.506C688.695 370.187 596.832 278.323 483.513 278.323C370.194 278.323 278.331 370.187 278.331 483.506C278.331 596.825 370.194 688.688 483.513 688.688Z" stroke="#E5F3E8" stroke-width="2.41482" stroke-miterlimit="10"/>
<path d="M483.502 663.429C582.871 663.429 663.425 582.875 663.425 483.506C663.425 384.137 582.871 303.583 483.502 303.583C384.133 303.583 303.579 384.137 303.579 483.506C303.579 582.875 384.133 663.429 483.502 663.429Z" stroke="#E5F3E8" stroke-width="2.41482" stroke-miterlimit="10"/>
<path d="M483.508 638.179C568.933 638.179 638.183 568.929 638.183 483.505C638.183 398.08 568.933 328.831 483.508 328.831C398.084 328.831 328.834 398.08 328.834 483.505C328.834 568.929 398.084 638.179 483.508 638.179Z" stroke="#E5F3E8" stroke-width="2.41482" stroke-miterlimit="10"/>
<path d="M483.514 612.928C554.994 612.928 612.939 554.983 612.939 483.504C612.939 412.024 554.994 354.079 483.514 354.079C412.035 354.079 354.09 412.024 354.09 483.504C354.09 554.983 412.035 612.928 483.514 612.928Z" stroke="#E5F3E8" stroke-width="2.41482" stroke-miterlimit="10"/>
<path d="M483.504 587.67C541.033 587.67 587.67 541.033 587.67 483.504C587.67 425.975 541.033 379.338 483.504 379.338C425.975 379.338 379.338 425.975 379.338 483.504C379.338 541.033 425.975 587.67 483.504 587.67Z" stroke="#E5F3E8" stroke-width="2.41482" stroke-miterlimit="10"/>
<path d="M483.51 562.423C527.094 562.423 562.426 527.091 562.426 483.507C562.426 439.922 527.094 404.59 483.51 404.59C439.926 404.59 404.594 439.922 404.594 483.507C404.594 527.091 439.926 562.423 483.51 562.423Z" stroke="#E5F3E8" stroke-width="2.41482" stroke-miterlimit="10"/>
<path d="M483.509 537.172C513.149 537.172 537.176 513.145 537.176 483.505C537.176 453.866 513.149 429.838 483.509 429.838C453.87 429.838 429.842 453.866 429.842 483.505C429.842 513.145 453.87 537.172 483.509 537.172Z" stroke="#E5F3E8" stroke-width="2.41482" stroke-miterlimit="10"/>
</g>
<defs>
<clipPath id="clip0_4071_2401">
<rect width="967" height="967" fill="white"/>
</clipPath>
</defs>
</svg>
