<svg width="33" height="25" viewBox="0 0 33 25" fill="none" xmlns="http://www.w3.org/2000/svg">
<path d="M0.579546 25V18.0455C0.579546 16.0455 0.954546 13.9659 1.70455 11.8068C2.47727 9.625 3.52273 7.56818 4.84091 5.63636C6.18182 3.68182 7.68182 2.03409 9.34091 0.693178L15.0682 4.40909C13.7273 6.43181 12.6023 8.54545 11.6932 10.75C10.8068 12.9318 10.375 15.3409 10.3977 17.9773V25H0.579546ZM17.8636 25V18.0455C17.8636 16.0455 18.2386 13.9659 18.9886 11.8068C19.7614 9.625 20.8068 7.56818 22.125 5.63636C23.4659 3.68182 24.9659 2.03409 26.625 0.693178L32.3523 4.40909C31.0114 6.43181 29.8864 8.54545 28.9773 10.75C28.0909 12.9318 27.6591 15.3409 27.6818 17.9773V25H17.8636Z" fill="white"/>
</svg>
