<svg width="32" height="25" viewBox="0 0 32 25" fill="none" xmlns="http://www.w3.org/2000/svg">
<path d="M0.0795456 24.5V17.5455C0.0795456 15.5455 0.454546 13.4659 1.20455 11.3068C1.97727 9.125 3.02273 7.06818 4.34091 5.13636C5.68182 3.18182 7.18182 1.53409 8.84091 0.193178L14.5682 3.90909C13.2273 5.93181 12.1023 8.04545 11.1932 10.25C10.3068 12.4318 9.875 14.8409 9.89773 17.4773V24.5H0.0795456ZM17.3636 24.5V17.5455C17.3636 15.5455 17.7386 13.4659 18.4886 11.3068C19.2614 9.125 20.3068 7.06818 21.625 5.13636C22.9659 3.18182 24.4659 1.53409 26.125 0.193178L31.8523 3.90909C30.5114 5.93181 29.3864 8.04545 28.4773 10.25C27.5909 12.4318 27.1591 14.8409 27.1818 17.4773V24.5H17.3636Z" fill="#8DEF88"/>
</svg>
