<svg width="93" height="15" viewBox="0 0 93 15" fill="none" xmlns="http://www.w3.org/2000/svg">
<g clip-path="url(#clip0_4071_1895)">
<path d="M29.9987 3.39258H28.3701V11.7154H29.9987V3.39258Z" fill="#2A3362"/>
<path d="M36.3208 8.76159C36.3208 9.90611 35.5723 10.4282 34.581 10.4282C33.5897 10.4282 32.922 9.91615 32.922 8.82183V5.8501H31.2935V9.1933C31.2935 10.8599 32.3455 11.8337 34.0954 11.8337C35.198 11.8337 35.8049 11.4321 36.2197 10.9804H36.3107L36.4523 11.7233H37.9494V5.8501H36.3208V8.76159Z" fill="#2A3362"/>
<path d="M52.2977 10.5578C51.1041 10.5578 50.4365 10.0157 50.3252 9.23256H55.4942C55.5144 9.07193 55.5346 8.90125 55.5245 8.74062C55.5144 6.6323 53.9061 5.73877 52.1865 5.73877C50.1937 5.73877 48.6865 6.92345 48.6865 8.83098C48.6865 10.6482 50.1229 11.8328 52.2876 11.8328C54.0983 11.8328 55.302 11.0397 55.5448 9.81486H53.9364C53.7543 10.2968 53.1778 10.5578 52.2977 10.5578ZM52.1966 7.0138C53.2384 7.0138 53.8353 7.47563 53.9364 8.11816H50.3657C50.5174 7.49571 51.1243 7.0138 52.1966 7.0138Z" fill="#2A3362"/>
<path d="M58.3088 6.69343H58.2077L58.056 5.8501H56.5791V11.7132H58.2077V9.1933C58.2077 8.05882 58.8652 7.42632 60.0993 7.42632C60.3218 7.42632 60.5443 7.4464 60.7669 7.48656V5.8501H60.5443C59.4418 5.8501 58.7741 6.08101 58.3088 6.69343Z" fill="#2A3362"/>
<path d="M68.7588 9.88603H68.6678L67.2719 6.22156H65.5927L64.2271 9.87599H64.1159L62.8211 5.8501H61.2026L63.1954 11.7132H64.9656L66.3817 7.9785H66.4829L67.8788 11.7132H69.6591L71.6518 5.8501H70.0334L68.7588 9.88603Z" fill="#2A3362"/>
<path d="M78.1314 10.0056V8.04789C78.1314 6.45158 76.776 5.73877 75.0867 5.73877C73.2963 5.73877 72.1735 6.5821 72.0217 7.84709H73.6503C73.7717 7.29491 74.237 6.99372 75.0867 6.99372C75.9364 6.99372 76.5028 7.31499 76.5028 7.95753V8.10812L73.8425 8.30892C72.6185 8.39927 71.7183 8.94141 71.7183 10.096C71.7183 11.2806 72.75 11.8429 74.2572 11.8429C75.4812 11.8429 76.2196 11.5015 76.6748 10.9995H76.7557C77.0086 11.5718 77.5346 11.7324 78.091 11.7324H78.7788V10.5377H78.6271C78.2933 10.5176 78.1314 10.357 78.1314 10.0056ZM76.5028 9.38316C76.5028 10.3068 75.3902 10.618 74.4393 10.618C73.7919 10.618 73.3671 10.4574 73.3671 10.0056C73.3671 9.60403 73.7312 9.41328 74.2775 9.36308L76.513 9.20244L76.5028 9.38316Z" fill="#2A3362"/>
<path d="M84.1598 5.8501L82.2581 10.0969H82.157L80.2249 5.8501H78.4648L81.2162 11.7132H83.1685L85.9098 5.8501H84.1598Z" fill="#2A3362"/>
<path d="M91.1224 9.81486C90.9201 10.2968 90.3436 10.5578 89.4736 10.5578C88.28 10.5578 87.6124 10.0157 87.5011 9.23256H92.6701C92.6903 9.07193 92.7106 8.90125 92.7004 8.74062C92.6903 6.6323 91.082 5.73877 89.3624 5.73877C87.3696 5.73877 85.8726 6.92345 85.8726 8.83098C85.8726 10.6482 87.3089 11.8328 89.4736 11.8328C91.2843 11.8328 92.488 11.0397 92.7308 9.81486H91.1224ZM89.3624 7.0138C90.4043 7.0138 91.0011 7.47563 91.1022 8.11816H87.5315C87.6832 7.49571 88.28 7.0138 89.3624 7.0138Z" fill="#2A3362"/>
<path d="M25.7303 5.42058C25.7303 4.90856 26.0944 4.68769 26.5699 4.68769C26.7924 4.68769 27.0048 4.71781 27.2172 4.77805L27.4904 3.60341C27.0959 3.46286 26.6811 3.39258 26.2664 3.39258C25.0627 3.39258 24.0916 4.02508 24.0916 5.34027V5.85229H22.6855V7.13736H24.0916V11.7154H25.7303V7.13736H27.5713V5.85229H25.7303V5.42058Z" fill="#2A3362"/>
<path d="M41.5538 4.2041H40.0365L39.9556 5.86064H38.6709V7.14571H39.9252V10.0371C39.9252 11.021 40.431 11.8443 41.9483 11.8443C42.3428 11.8443 42.7373 11.8041 43.1217 11.7137V10.4789C42.8991 10.5291 42.6766 10.5592 42.4439 10.5592C41.6347 10.5592 41.5538 10.0974 41.5538 9.74598V7.13567H43.1722V5.8506H41.5538V4.2041Z" fill="#2A3362"/>
<path d="M46.6745 4.2041H45.1673L45.0864 5.86064H43.8018V7.14571H45.0561V10.0371C45.0561 11.021 45.5618 11.8443 47.0791 11.8443C47.4736 11.8443 47.858 11.7941 48.2424 11.7137V10.4789C48.0199 10.5291 47.7973 10.5592 47.5647 10.5592C46.7555 10.5592 46.6745 10.0974 46.6745 9.74598V7.13567H48.293V5.8506H46.6644V4.2041H46.6745Z" fill="#2A3362"/>
<path d="M0 3.17316C0 2.22943 0.273116 1.42626 0.859808 0.854004L1.87135 1.85797C0.748539 2.97237 1.72973 6.43604 4.93631 9.61861C8.14289 12.8012 11.6327 13.775 12.7555 12.6606L13.767 13.6646C11.8654 15.552 7.54608 14.2067 3.92477 10.6226C1.41615 8.1227 0 5.30156 0 3.17316Z" fill="#009A46"/>
<path d="M6.38304 14.5253C5.43219 14.5253 4.62296 14.2542 4.04639 13.6719L5.05793 12.6679C6.18073 13.7823 9.67054 12.8085 12.8771 9.62593C16.0837 6.44337 17.0649 2.97969 15.9421 1.86529L16.9536 0.861328C18.8553 2.74878 17.4999 7.0357 13.8887 10.6299C11.3699 13.1197 8.51739 14.5253 6.38304 14.5253Z" fill="#FF5805"/>
<path d="M14.2182 9.19685C13.6012 7.43991 12.3469 5.5625 10.688 3.916C7.06666 0.321808 2.74739 -1.01346 0.845699 0.863949C0.714198 1.0045 0.835583 1.33581 1.1087 1.60688C1.38181 1.87795 1.72574 1.99843 1.85724 1.86791C2.98005 0.753513 6.46986 1.72736 9.67643 4.90992C11.1937 6.41587 12.3267 8.10253 12.8729 9.65867C13.3483 11.0241 13.3079 12.1284 12.7515 12.6806C12.62 12.8111 12.7313 13.1424 13.0145 13.4235C13.2977 13.7046 13.6316 13.8151 13.7631 13.6846C14.7341 12.7107 14.896 11.1144 14.2182 9.19685Z" fill="#F5AFCB"/>
<path d="M16.9432 0.863135C15.9721 -0.10067 14.3637 -0.261304 12.4317 0.401312C10.6615 1.01373 8.76992 2.25864 7.111 3.90514C3.48969 7.49933 2.14434 11.7863 4.04604 13.6737C4.17754 13.8042 4.52146 13.6938 4.79458 13.4127C5.06769 13.1316 5.18908 12.8003 5.05758 12.6697C3.93477 11.5553 4.91596 8.09167 8.12254 4.90911C9.63985 3.40316 11.3392 2.27872 12.897 1.73658C14.2727 1.26472 15.3854 1.30488 15.9417 1.85706C16.0732 1.98757 16.407 1.87714 16.6903 1.59603C16.9735 1.31492 17.0848 1.00369 16.9432 0.863135Z" fill="#FF9B00"/>
</g>
<defs>
<clipPath id="clip0_4071_1895">
<rect width="92.7278" height="14.5274" fill="white"/>
</clipPath>
</defs>
</svg>
