<svg width="379" height="483" viewBox="0 0 379 483" fill="none" xmlns="http://www.w3.org/2000/svg">
<rect y="132.914" width="361" height="350" rx="10.8099" fill="black"/>
<path d="M304.363 247.726C372.495 247.726 427.726 192.495 427.726 124.363C427.726 56.2315 372.495 1 304.363 1C236.232 1 181 56.2315 181 124.363C181 192.495 236.232 247.726 304.363 247.726Z" stroke="#E5F3E8" stroke-opacity="0.5" stroke-width="0.616815" stroke-miterlimit="10"/>
<path d="M304.363 241.277C368.933 241.277 421.277 188.933 421.277 124.363C421.277 59.7937 368.933 7.44971 304.363 7.44971C239.794 7.44971 187.45 59.7937 187.45 124.363C187.45 188.933 239.794 241.277 304.363 241.277Z" stroke="#E5F3E8" stroke-opacity="0.5" stroke-width="0.616815" stroke-miterlimit="10"/>
<path d="M304.361 234.826C365.368 234.826 414.823 185.371 414.823 124.365C414.823 63.3582 365.368 13.9028 304.361 13.9028C243.355 13.9028 193.899 63.3582 193.899 124.365C193.899 185.371 243.355 234.826 304.361 234.826Z" stroke="#E5F3E8" stroke-opacity="0.5" stroke-width="0.616815" stroke-miterlimit="10"/>
<path d="M304.361 228.373C361.805 228.373 408.373 181.805 408.373 124.361C408.373 66.9165 361.805 20.3486 304.361 20.3486C246.917 20.3486 200.349 66.9165 200.349 124.361C200.349 181.805 246.917 228.373 304.361 228.373Z" stroke="#E5F3E8" stroke-opacity="0.5" stroke-width="0.616815" stroke-miterlimit="10"/>
<path d="M304.366 221.923C358.247 221.923 401.927 178.244 401.927 124.363C401.927 70.4815 358.247 26.8022 304.366 26.8022C250.485 26.8022 206.806 70.4815 206.806 124.363C206.806 178.244 250.485 221.923 304.366 221.923Z" stroke="#E5F3E8" stroke-opacity="0.5" stroke-width="0.616815" stroke-miterlimit="10"/>
<path d="M304.366 215.474C354.686 215.474 395.477 174.682 395.477 124.363C395.477 74.0438 354.686 33.252 304.366 33.252C254.047 33.252 213.255 74.0438 213.255 124.363C213.255 174.682 254.047 215.474 304.366 215.474Z" stroke="#E5F3E8" stroke-opacity="0.5" stroke-width="0.616815" stroke-miterlimit="10"/>
<path d="M304.359 209.024C351.117 209.024 389.021 171.12 389.021 124.363C389.021 77.6055 351.117 39.7012 304.359 39.7012C257.602 39.7012 219.698 77.6055 219.698 124.363C219.698 171.12 257.602 209.024 304.359 209.024Z" stroke="#E5F3E8" stroke-opacity="0.5" stroke-width="0.616815" stroke-miterlimit="10"/>
<path d="M304.357 202.574C347.551 202.574 382.567 167.559 382.567 124.365C382.567 81.1705 347.551 46.1548 304.357 46.1548C261.163 46.1548 226.147 81.1705 226.147 124.365C226.147 167.559 261.163 202.574 304.357 202.574Z" stroke="#E5F3E8" stroke-opacity="0.5" stroke-width="0.616815" stroke-miterlimit="10"/>
<path d="M304.365 196.125C343.997 196.125 376.125 163.997 376.125 124.365C376.125 84.7327 343.997 52.6045 304.365 52.6045C264.733 52.6045 232.604 84.7327 232.604 124.365C232.604 163.997 264.733 196.125 304.365 196.125Z" stroke="#E5F3E8" stroke-opacity="0.5" stroke-width="0.616815" stroke-miterlimit="10"/>
<path d="M304.365 189.675C340.435 189.675 369.675 160.435 369.675 124.365C369.675 88.2944 340.435 59.0537 304.365 59.0537C268.294 59.0537 239.054 88.2944 239.054 124.365C239.054 160.435 268.294 189.675 304.365 189.675Z" stroke="#E5F3E8" stroke-opacity="0.5" stroke-width="0.616815" stroke-miterlimit="10"/>
<path d="M304.362 183.221C336.869 183.221 363.221 156.869 363.221 124.362C363.221 91.8555 336.869 65.5034 304.362 65.5034C271.855 65.5034 245.503 91.8555 245.503 124.362C245.503 156.869 271.855 183.221 304.362 183.221Z" stroke="#E5F3E8" stroke-opacity="0.5" stroke-width="0.616815" stroke-miterlimit="10"/>
<path d="M304.363 176.772C333.308 176.772 356.772 153.308 356.772 124.363C356.772 95.4177 333.308 71.9531 304.363 71.9531C275.418 71.9531 251.953 95.4177 251.953 124.363C251.953 153.308 275.418 176.772 304.363 176.772Z" stroke="#E5F3E8" stroke-opacity="0.5" stroke-width="0.616815" stroke-miterlimit="10"/>
<path d="M304.368 170.322C329.75 170.322 350.326 149.746 350.326 124.364C350.326 98.9822 329.75 78.4062 304.368 78.4062C278.986 78.4062 258.41 98.9822 258.41 124.364C258.41 149.746 278.986 170.322 304.368 170.322Z" stroke="#E5F3E8" stroke-opacity="0.5" stroke-width="0.616815" stroke-miterlimit="10"/>
<path d="M304.361 163.872C326.181 163.872 343.869 146.184 343.869 124.364C343.869 102.544 326.181 84.856 304.361 84.856C282.541 84.856 264.853 102.544 264.853 124.364C264.853 146.184 282.541 163.872 304.361 163.872Z" stroke="#E5F3E8" stroke-opacity="0.5" stroke-width="0.616815" stroke-miterlimit="10"/>
<path d="M304.361 157.419C322.618 157.419 337.419 142.618 337.419 124.361C337.419 106.103 322.618 91.3018 304.361 91.3018C286.103 91.3018 271.302 106.103 271.302 124.361C271.302 142.618 286.103 157.419 304.361 157.419Z" stroke="#E5F3E8" stroke-opacity="0.5" stroke-width="0.616815" stroke-miterlimit="10"/>
<path d="M304.366 150.973C319.06 150.973 330.973 139.06 330.973 124.366C330.973 109.671 319.06 97.7588 304.366 97.7588C289.671 97.7588 277.759 109.671 277.759 124.366C277.759 139.06 289.671 150.973 304.366 150.973Z" stroke="#E5F3E8" stroke-opacity="0.5" stroke-width="0.616815" stroke-miterlimit="10"/>
<path d="M304.366 144.52C315.499 144.52 324.524 135.495 324.524 124.363C324.524 113.23 315.499 104.205 304.366 104.205C293.233 104.205 284.208 113.23 284.208 124.363C284.208 135.495 293.233 144.52 304.366 144.52Z" stroke="#E5F3E8" stroke-opacity="0.5" stroke-width="0.616815" stroke-miterlimit="10"/>
<path d="M304.366 138.071C311.937 138.071 318.074 131.933 318.074 124.362C318.074 116.792 311.937 110.654 304.366 110.654C296.796 110.654 290.658 116.792 290.658 124.362C290.658 131.933 296.796 138.071 304.366 138.071Z" stroke="#E5F3E8" stroke-opacity="0.5" stroke-width="0.616815" stroke-miterlimit="10"/>
</svg>
