<svg width="379" height="483" viewBox="0 0 379 483" fill="none" xmlns="http://www.w3.org/2000/svg">
<rect y="132.914" width="361" height="350" rx="10.8099" fill="black"/>
<path d="M330.363 247.726C398.495 247.726 453.726 192.495 453.726 124.363C453.726 56.2315 398.495 1 330.363 1C262.232 1 207 56.2315 207 124.363C207 192.495 262.232 247.726 330.363 247.726Z" stroke="#E5F3E8" stroke-opacity="0.5" stroke-width="0.616815" stroke-miterlimit="10"/>
<path d="M330.363 241.277C394.933 241.277 447.277 188.933 447.277 124.363C447.277 59.7937 394.933 7.44971 330.363 7.44971C265.794 7.44971 213.45 59.7937 213.45 124.363C213.45 188.933 265.794 241.277 330.363 241.277Z" stroke="#E5F3E8" stroke-opacity="0.5" stroke-width="0.616815" stroke-miterlimit="10"/>
<path d="M330.361 234.826C391.368 234.826 440.823 185.371 440.823 124.365C440.823 63.3582 391.368 13.9028 330.361 13.9028C269.355 13.9028 219.899 63.3582 219.899 124.365C219.899 185.371 269.355 234.826 330.361 234.826Z" stroke="#E5F3E8" stroke-opacity="0.5" stroke-width="0.616815" stroke-miterlimit="10"/>
<path d="M330.361 228.373C387.805 228.373 434.373 181.805 434.373 124.361C434.373 66.9165 387.805 20.3486 330.361 20.3486C272.917 20.3486 226.349 66.9165 226.349 124.361C226.349 181.805 272.917 228.373 330.361 228.373Z" stroke="#E5F3E8" stroke-opacity="0.5" stroke-width="0.616815" stroke-miterlimit="10"/>
<path d="M330.366 221.923C384.247 221.923 427.927 178.244 427.927 124.363C427.927 70.4815 384.247 26.8022 330.366 26.8022C276.485 26.8022 232.806 70.4815 232.806 124.363C232.806 178.244 276.485 221.923 330.366 221.923Z" stroke="#E5F3E8" stroke-opacity="0.5" stroke-width="0.616815" stroke-miterlimit="10"/>
<path d="M330.366 215.474C380.686 215.474 421.477 174.682 421.477 124.363C421.477 74.0438 380.686 33.252 330.366 33.252C280.047 33.252 239.255 74.0438 239.255 124.363C239.255 174.682 280.047 215.474 330.366 215.474Z" stroke="#E5F3E8" stroke-opacity="0.5" stroke-width="0.616815" stroke-miterlimit="10"/>
<path d="M330.359 209.024C377.117 209.024 415.021 171.12 415.021 124.363C415.021 77.6055 377.117 39.7012 330.359 39.7012C283.602 39.7012 245.698 77.6055 245.698 124.363C245.698 171.12 283.602 209.024 330.359 209.024Z" stroke="#E5F3E8" stroke-opacity="0.5" stroke-width="0.616815" stroke-miterlimit="10"/>
<path d="M330.357 202.574C373.551 202.574 408.567 167.559 408.567 124.365C408.567 81.1705 373.551 46.1548 330.357 46.1548C287.163 46.1548 252.147 81.1705 252.147 124.365C252.147 167.559 287.163 202.574 330.357 202.574Z" stroke="#E5F3E8" stroke-opacity="0.5" stroke-width="0.616815" stroke-miterlimit="10"/>
<path d="M330.365 196.125C369.997 196.125 402.125 163.997 402.125 124.365C402.125 84.7327 369.997 52.6045 330.365 52.6045C290.733 52.6045 258.604 84.7327 258.604 124.365C258.604 163.997 290.733 196.125 330.365 196.125Z" stroke="#E5F3E8" stroke-opacity="0.5" stroke-width="0.616815" stroke-miterlimit="10"/>
<path d="M330.365 189.675C366.435 189.675 395.675 160.435 395.675 124.365C395.675 88.2944 366.435 59.0537 330.365 59.0537C294.294 59.0537 265.054 88.2944 265.054 124.365C265.054 160.435 294.294 189.675 330.365 189.675Z" stroke="#E5F3E8" stroke-opacity="0.5" stroke-width="0.616815" stroke-miterlimit="10"/>
<path d="M330.362 183.221C362.869 183.221 389.221 156.869 389.221 124.362C389.221 91.8555 362.869 65.5034 330.362 65.5034C297.855 65.5034 271.503 91.8555 271.503 124.362C271.503 156.869 297.855 183.221 330.362 183.221Z" stroke="#E5F3E8" stroke-opacity="0.5" stroke-width="0.616815" stroke-miterlimit="10"/>
<path d="M330.363 176.772C359.308 176.772 382.772 153.308 382.772 124.363C382.772 95.4177 359.308 71.9531 330.363 71.9531C301.418 71.9531 277.953 95.4177 277.953 124.363C277.953 153.308 301.418 176.772 330.363 176.772Z" stroke="#E5F3E8" stroke-opacity="0.5" stroke-width="0.616815" stroke-miterlimit="10"/>
<path d="M330.368 170.322C355.75 170.322 376.326 149.746 376.326 124.364C376.326 98.9822 355.75 78.4062 330.368 78.4062C304.986 78.4062 284.41 98.9822 284.41 124.364C284.41 149.746 304.986 170.322 330.368 170.322Z" stroke="#E5F3E8" stroke-opacity="0.5" stroke-width="0.616815" stroke-miterlimit="10"/>
<path d="M330.361 163.872C352.181 163.872 369.869 146.184 369.869 124.364C369.869 102.544 352.181 84.856 330.361 84.856C308.541 84.856 290.853 102.544 290.853 124.364C290.853 146.184 308.541 163.872 330.361 163.872Z" stroke="#E5F3E8" stroke-opacity="0.5" stroke-width="0.616815" stroke-miterlimit="10"/>
<path d="M330.361 157.419C348.618 157.419 363.419 142.618 363.419 124.361C363.419 106.103 348.618 91.3018 330.361 91.3018C312.103 91.3018 297.302 106.103 297.302 124.361C297.302 142.618 312.103 157.419 330.361 157.419Z" stroke="#E5F3E8" stroke-opacity="0.5" stroke-width="0.616815" stroke-miterlimit="10"/>
<path d="M330.366 150.973C345.06 150.973 356.973 139.06 356.973 124.366C356.973 109.671 345.06 97.7588 330.366 97.7588C315.671 97.7588 303.759 109.671 303.759 124.366C303.759 139.06 315.671 150.973 330.366 150.973Z" stroke="#E5F3E8" stroke-opacity="0.5" stroke-width="0.616815" stroke-miterlimit="10"/>
<path d="M330.366 144.52C341.499 144.52 350.524 135.495 350.524 124.363C350.524 113.23 341.499 104.205 330.366 104.205C319.233 104.205 310.208 113.23 310.208 124.363C310.208 135.495 319.233 144.52 330.366 144.52Z" stroke="#E5F3E8" stroke-opacity="0.5" stroke-width="0.616815" stroke-miterlimit="10"/>
<path d="M330.366 138.071C337.937 138.071 344.074 131.933 344.074 124.362C344.074 116.792 337.937 110.654 330.366 110.654C322.796 110.654 316.658 116.792 316.658 124.362C316.658 131.933 322.796 138.071 330.366 138.071Z" stroke="#E5F3E8" stroke-opacity="0.5" stroke-width="0.616815" stroke-miterlimit="10"/>
</svg>
