<svg width="72" height="75" viewBox="0 0 72 75" fill="none" xmlns="http://www.w3.org/2000/svg">
<path d="M49.1829 23.7656H5.0332V42.7761H49.1829V23.7656Z" fill="#1443BD"/>
<path d="M49.1829 23.7656H5.0332V42.7761H49.1829V23.7656Z" fill="black" fill-opacity="0.35"/>
<path d="M25.4316 7.59934L5.05273 23.7637L48.0264 24.8756C48.1187 24.8754 48.2108 24.8651 48.3009 24.8448C48.8401 24.7096 49.2162 24.3192 49.2101 23.7637L28.1816 7.54639C27.3457 7.00261 26.2675 7.05556 25.4316 7.59934Z" fill="#1443BD"/>
<path d="M25.4316 7.59934L5.05273 23.7637L48.0264 24.8756C48.1187 24.8754 48.2108 24.8651 48.3009 24.8448C48.8401 24.7096 49.2162 24.3192 49.2101 23.7637L28.1816 7.54639C27.3457 7.00261 26.2675 7.05556 25.4316 7.59934Z" fill="black" fill-opacity="0.35"/>
<path fill-rule="evenodd" clip-rule="evenodd" d="M17.4645 24.605L21.4576 21.0235L24.1679 25.7123L17.4645 24.605Z" fill="#FFD666"/>
<path fill-rule="evenodd" clip-rule="evenodd" d="M36.8942 27.814L34.2606 23.1379L30.4036 26.7418L36.8942 27.814Z" fill="#FFA940"/>
<path fill-rule="evenodd" clip-rule="evenodd" d="M17.4648 24.6045L25.2565 37.7841L24.1713 25.7123L17.4648 24.6045Z" fill="#FFC53D"/>
<path fill-rule="evenodd" clip-rule="evenodd" d="M36.8516 27.8076L25.2566 37.7848L30.3841 26.7393L36.8516 27.8076Z" fill="#FA8C16"/>
<path fill-rule="evenodd" clip-rule="evenodd" d="M21.4238 21.0176L27.8719 22.0827L23.9659 25.6786L21.4238 21.0176Z" fill="#FFC53D"/>
<path fill-rule="evenodd" clip-rule="evenodd" d="M27.8281 22.0762L34.2762 23.1413L30.3935 26.741L27.8281 22.0762Z" fill="#FFC53D"/>
<path fill-rule="evenodd" clip-rule="evenodd" d="M23.9557 25.6717L27.8567 22.0807L30.4037 26.7368L29.8283 27.9154L24.1363 26.9201L23.9557 25.6717Z" fill="#FFA940"/>
<path fill-rule="evenodd" clip-rule="evenodd" d="M23.9766 25.6807L25.2617 37.7855L30.4033 26.7423L23.9766 25.6807Z" fill="#FAAD14"/>
<g clip-path="url(#clip0_4071_1969)">
<path d="M23.8747 45.0102C28.0909 46.9207 33.0665 45.0318 34.9881 40.7912C36.9096 36.5506 35.0495 31.5641 30.8333 29.6536C26.6171 27.7431 21.6415 29.632 19.7199 33.8727C17.7983 38.1133 19.6585 43.0997 23.8747 45.0102Z" fill="#FFD666"/>
<path d="M24.4875 43.4023C27.9127 44.9543 31.9475 43.4359 33.4996 40.0107C35.0516 36.5856 33.5332 32.5508 30.108 30.9987C26.6829 29.4467 22.6481 30.9651 21.096 34.3903C19.544 37.8154 21.0624 41.8502 24.4875 43.4023Z" fill="#FFC53D"/>
<path d="M25.5161 41.2543C25.3342 41.1719 25.1954 41.0921 25.0997 41.015L25.5229 40.081C25.1953 39.8736 24.9098 39.643 24.6663 39.3893C24.4229 39.1357 24.238 38.9064 24.1116 38.7016C24.1832 38.5528 24.3016 38.4125 24.4667 38.2807C24.6318 38.1489 24.7844 38.0726 24.9246 38.0518C25.0927 38.3135 25.3055 38.5743 25.5629 38.8343C25.8203 39.0943 26.1004 39.295 26.4031 39.4364C26.7004 39.5711 26.9738 39.6191 27.2233 39.5804C27.4743 39.5381 27.6547 39.4006 27.7644 39.1678C27.855 38.977 27.8742 38.7812 27.8218 38.5804C27.7711 38.3761 27.6351 38.1691 27.414 37.9593L26.5601 37.136C26.2391 36.8303 26.0212 36.5018 25.9063 36.1504C25.7966 35.7971 25.8281 35.4298 26.0009 35.0485C26.199 34.6113 26.5138 34.3028 26.9451 34.1231C27.38 33.9449 27.8547 33.9302 28.3691 34.079L28.7852 33.1608C28.851 33.1737 28.9239 33.1941 29.0041 33.222C29.0877 33.2515 29.1662 33.2828 29.2397 33.3161C29.4111 33.3938 29.5481 33.4728 29.6509 33.553L29.2325 34.4765C29.512 34.6411 29.7569 34.8217 29.9673 35.0182C30.1811 35.2162 30.3629 35.4104 30.5128 35.6006C30.4431 35.7545 30.3358 35.8935 30.1911 36.0176C30.0498 36.1433 29.9002 36.2315 29.7423 36.2822C29.5577 36.0384 29.3534 35.8193 29.1294 35.6251C28.9089 35.4324 28.6745 35.2798 28.4262 35.1673C28.1393 35.0373 27.8817 34.9964 27.6532 35.0447C27.4248 35.093 27.2622 35.2238 27.1655 35.4371C27.0736 35.64 27.0703 35.8241 27.1557 35.9892C27.2426 36.1509 27.3771 36.3193 27.5591 36.4946L28.3652 37.2836C28.7079 37.6159 28.9365 37.9767 29.0511 38.3659C29.1656 38.7551 29.1223 39.1718 28.921 39.6161C28.7181 40.0638 28.3877 40.3694 27.9299 40.533C27.4737 40.6931 26.9576 40.6784 26.3815 40.4891L25.9654 41.4073C25.8478 41.3877 25.698 41.3367 25.5161 41.2543Z" fill="white"/>
</g>
<g clip-path="url(#clip1_4071_1969)">
<path d="M34.5898 36.3039C37.0645 37.4253 39.985 36.3166 41.1129 33.8275C42.2408 31.3384 41.149 28.4116 38.6742 27.2902C36.1995 26.1688 33.279 27.2776 32.1511 29.7666C31.0233 32.2557 32.1151 35.1825 34.5898 36.3039Z" fill="#FFD666"/>
<path d="M34.9486 35.3605C36.959 36.2715 39.3273 35.3803 40.2383 33.3698C41.1493 31.3594 40.258 28.9911 38.2476 28.0802C36.2372 27.1692 33.8689 28.0604 32.9579 30.0708C32.0469 32.0813 32.9382 34.4495 34.9486 35.3605Z" fill="#FFC53D"/>
<path d="M35.553 34.0991C35.4462 34.0508 35.3647 34.0039 35.3085 33.9587L35.5569 33.4105C35.3647 33.2887 35.1971 33.1534 35.0542 33.0045C34.9113 32.8556 34.8028 32.7211 34.7286 32.6008C34.7706 32.5135 34.8401 32.4311 34.937 32.3538C35.0339 32.2764 35.1235 32.2316 35.2058 32.2194C35.3044 32.373 35.4293 32.5261 35.5804 32.6787C35.7315 32.8313 35.8959 32.9491 36.0736 33.0321C36.2481 33.1112 36.4086 33.1394 36.555 33.1166C36.7023 33.0918 36.8082 33.0111 36.8726 32.8745C36.9258 32.7625 36.9371 32.6476 36.9063 32.5297C36.8765 32.4098 36.7967 32.2883 36.6669 32.1651L36.1658 31.6819C35.9773 31.5025 35.8494 31.3096 35.782 31.1034C35.7176 30.896 35.7361 30.6804 35.8375 30.4566C35.9538 30.2 36.1385 30.0189 36.3918 29.9134C36.647 29.8088 36.9256 29.8002 37.2276 29.8875L37.4718 29.3486C37.5104 29.3562 37.5532 29.3682 37.6003 29.3845C37.6493 29.4018 37.6954 29.4202 37.7386 29.4398C37.8392 29.4854 37.9196 29.5317 37.9799 29.5788L37.7343 30.1209C37.8984 30.2175 38.0422 30.3235 38.1656 30.4388C38.2911 30.5551 38.3979 30.669 38.4858 30.7806C38.4449 30.871 38.382 30.9526 38.297 31.0254C38.214 31.0992 38.1262 31.151 38.0336 31.1808C37.9252 31.0376 37.8053 30.909 37.6738 30.795C37.5444 30.6819 37.4068 30.5924 37.261 30.5263C37.0927 30.45 36.9415 30.4261 36.8074 30.4544C36.6733 30.4827 36.5779 30.5595 36.5211 30.6847C36.4671 30.8038 36.4652 30.9118 36.5153 31.0088C36.5664 31.1037 36.6453 31.2025 36.7521 31.3054L37.2253 31.7685C37.4264 31.9636 37.5606 32.1753 37.6279 32.4038C37.6951 32.6322 37.6696 32.8768 37.5515 33.1376C37.4324 33.4004 37.2385 33.5798 36.9698 33.6758C36.702 33.7698 36.3991 33.7612 36.0609 33.65L35.8167 34.1889C35.7476 34.1775 35.6598 34.1475 35.553 34.0991Z" fill="white"/>
</g>
<g clip-path="url(#clip2_4071_1969)">
<path d="M18.342 36.1271C21.0071 35.5987 22.7367 32.9973 22.2052 30.3168C21.6737 27.6363 19.0824 25.8917 16.4173 26.4201C13.7523 26.9486 12.0227 29.5499 12.5541 32.2304C13.0856 34.9109 15.677 36.6555 18.342 36.1271Z" fill="#FFD666"/>
<path d="M18.0861 35.1509C20.2511 34.7216 21.6582 32.6185 21.2289 30.4535C20.7996 28.2884 18.6965 26.8813 16.5315 27.3106C14.3664 27.7399 12.9593 29.843 13.3886 32.008C13.8179 34.1731 15.921 35.5802 18.0861 35.1509Z" fill="#FFC53D"/>
<path d="M17.8421 33.7736C17.7272 33.7964 17.6336 33.8058 17.5616 33.8017L17.4445 33.2113C17.2173 33.2242 17.0023 33.2117 16.7994 33.1738C16.5966 33.1359 16.43 33.0896 16.2997 33.0351C16.283 32.9395 16.2916 32.8321 16.3254 32.7128C16.3592 32.5935 16.406 32.505 16.4658 32.4472C16.6354 32.5146 16.8261 32.5665 17.0377 32.6026C17.2494 32.6388 17.4517 32.6389 17.6445 32.603C17.8324 32.5657 17.9793 32.4952 18.0851 32.3915C18.1905 32.2856 18.2296 32.1583 18.2024 32.0097C18.1805 31.8877 18.1228 31.7877 18.0292 31.7097C17.9352 31.6296 17.7996 31.5772 17.6223 31.5526L16.9336 31.4513C16.6759 31.4151 16.4596 31.3327 16.2848 31.2042C16.1117 31.0731 16.0013 30.887 15.9535 30.646C15.8987 30.3696 15.9436 30.1149 16.0881 29.8817C16.2348 29.6481 16.4563 29.4789 16.7526 29.3742L16.6376 28.7938C16.6734 28.7775 16.7152 28.7623 16.763 28.7483C16.8129 28.7338 16.8611 28.7219 16.9076 28.7127C17.0159 28.6912 17.1083 28.6821 17.1848 28.6853L17.3005 29.269C17.4902 29.2521 17.6688 29.2546 17.8363 29.2765C18.006 29.298 18.1591 29.3286 18.2957 29.3681C18.315 29.4654 18.3113 29.5684 18.2845 29.6771C18.2601 29.7854 18.2188 29.8786 18.1608 29.9567C17.9893 29.9034 17.817 29.8687 17.6437 29.8525C17.4727 29.8358 17.3086 29.8431 17.1517 29.8742C16.9704 29.9101 16.8334 29.9786 16.7409 30.0797C16.6483 30.1808 16.6154 30.2988 16.6421 30.4337C16.6676 30.5619 16.7289 30.6508 16.826 30.7005C16.9228 30.748 17.0445 30.7824 17.1912 30.8039L17.8455 30.9051C18.1226 30.9467 18.355 31.0408 18.5426 31.1874C18.7303 31.334 18.8519 31.5478 18.9076 31.8286C18.9637 32.1116 18.9105 32.3703 18.7479 32.6048C18.5848 32.837 18.3334 33.0064 17.9937 33.1128L18.1088 33.6932C18.046 33.724 17.9571 33.7508 17.8421 33.7736Z" fill="white"/>
</g>
<path d="M28.2936 40.6627C27.5643 40.9062 26.7638 40.8033 26.1199 40.3832L5 23.7637V51.7616C5 52.3816 5.61077 52.8842 6.26376 52.8842H48.0259C48.68 52.8842 49.2103 52.3816 49.2103 51.7616V23.7637L29.0422 40.2504C28.8186 40.4305 28.5653 40.57 28.2936 40.6627Z" fill="#2A84C6"/>
<path d="M28.2936 40.6627C27.5643 40.9062 26.7638 40.8033 26.1199 40.3832L5 23.7637V51.7616C5 52.3816 5.61077 52.8842 6.26376 52.8842H48.0259C48.68 52.8842 49.2103 52.3816 49.2103 51.7616V23.7637L29.0422 40.2504C28.8186 40.4305 28.5653 40.57 28.2936 40.6627Z" fill="white" fill-opacity="0.85"/>
<path fill-rule="evenodd" clip-rule="evenodd" d="M28.2936 40.6627C27.5643 40.9062 26.7638 40.8033 26.1199 40.3832L25.9511 40.2504L5 51.7616C5 52.3816 5.61077 52.8842 6.26376 52.8842H48.0259C48.68 52.8842 49.2103 52.3816 49.2103 51.7616L29.0422 40.2504C28.8186 40.4305 28.5653 40.57 28.2936 40.6627Z" fill="#1443BD"/>
<path fill-rule="evenodd" clip-rule="evenodd" d="M28.2936 40.6627C27.5643 40.9062 26.7638 40.8033 26.1199 40.3832L25.9511 40.2504L5 51.7616C5 52.3816 5.61077 52.8842 6.26376 52.8842H48.0259C48.68 52.8842 49.2103 52.3816 49.2103 51.7616L29.0422 40.2504C28.8186 40.4305 28.5653 40.57 28.2936 40.6627Z" fill="white" fill-opacity="0.85"/>
<g clip-path="url(#clip3_4071_1969)" filter="url(#filter0_ddddd_4071_1969)">
<path fill-rule="evenodd" clip-rule="evenodd" d="M33.5301 24.5113L33.3831 23.5492L32.7403 22.8184L32.7402 22.8184L33.7024 22.6713L34.4333 22.0285L34.5803 22.9906L35.2232 23.7215L35.2231 23.7215L34.261 23.8685L33.5302 24.5114L33.5301 24.5114L33.5301 24.5113Z" fill="white"/>
</g>
<g filter="url(#filter1_ddddd_4071_1969)">
<ellipse cx="49.132" cy="42.339" rx="4.8703" ry="4.8703" fill="white"/>
<path d="M51.2013 40.2733C51.0772 40.1459 50.8936 40.0985 50.7224 40.1484L46.7301 41.3094C46.5494 41.3596 46.4214 41.5036 46.3869 41.6866C46.3517 41.8729 46.4748 42.1093 46.6355 42.2082L47.8839 42.9754C48.0119 43.0541 48.1771 43.0344 48.2831 42.9275L49.7126 41.4891C49.7845 41.4142 49.9036 41.4142 49.9756 41.4891C50.0475 41.5616 50.0475 41.6789 49.9756 41.7538L48.5436 43.1924C48.4374 43.299 48.4176 43.465 48.4957 43.5939L49.2585 44.8547C49.3478 45.0045 49.5016 45.0894 49.6704 45.0894C49.6902 45.0894 49.7126 45.0894 49.7324 45.0869C49.9259 45.0619 50.0798 44.9296 50.1368 44.7424L51.3204 40.7551C51.3725 40.5853 51.3254 40.4006 51.2013 40.2733" fill="#1443BD"/>
</g>
<defs>
<filter id="filter0_ddddd_4071_1969" x="14.2949" y="13.5806" width="39.3779" height="39.3784" filterUnits="userSpaceOnUse" color-interpolation-filters="sRGB">
<feFlood flood-opacity="0" result="BackgroundImageFix"/>
<feColorMatrix in="SourceAlpha" type="matrix" values="0 0 0 0 0 0 0 0 0 0 0 0 0 0 0 0 0 0 127 0" result="hardAlpha"/>
<feOffset dy="1.5"/>
<feGaussianBlur stdDeviation="1"/>
<feColorMatrix type="matrix" values="0 0 0 0 0.705882 0 0 0 0 0.831373 0 0 0 0 0.921569 0 0 0 0.12 0"/>
<feBlend mode="normal" in2="BackgroundImageFix" result="effect1_dropShadow_4071_1969"/>
<feColorMatrix in="SourceAlpha" type="matrix" values="0 0 0 0 0 0 0 0 0 0 0 0 0 0 0 0 0 0 127 0" result="hardAlpha"/>
<feOffset dy="2"/>
<feGaussianBlur stdDeviation="3"/>
<feColorMatrix type="matrix" values="0 0 0 0 0.705882 0 0 0 0 0.831373 0 0 0 0 0.921569 0 0 0 0.08 0"/>
<feBlend mode="normal" in2="effect1_dropShadow_4071_1969" result="effect2_dropShadow_4071_1969"/>
<feColorMatrix in="SourceAlpha" type="matrix" values="0 0 0 0 0 0 0 0 0 0 0 0 0 0 0 0 0 0 127 0" result="hardAlpha"/>
<feOffset dy="4"/>
<feGaussianBlur stdDeviation="4.5"/>
<feColorMatrix type="matrix" values="0 0 0 0 0.705882 0 0 0 0 0.831373 0 0 0 0 0.921569 0 0 0 0.04 0"/>
<feBlend mode="normal" in2="effect2_dropShadow_4071_1969" result="effect3_dropShadow_4071_1969"/>
<feColorMatrix in="SourceAlpha" type="matrix" values="0 0 0 0 0 0 0 0 0 0 0 0 0 0 0 0 0 0 127 0" result="hardAlpha"/>
<feOffset dy="10"/>
<feGaussianBlur stdDeviation="8.75"/>
<feColorMatrix type="matrix" values="0 0 0 0 0.705882 0 0 0 0 0.831373 0 0 0 0 0.921569 0 0 0 0.04 0"/>
<feBlend mode="normal" in2="effect3_dropShadow_4071_1969" result="effect4_dropShadow_4071_1969"/>
<feColorMatrix in="SourceAlpha" type="matrix" values="0 0 0 0 0 0 0 0 0 0 0 0 0 0 0 0 0 0 127 0" result="hardAlpha"/>
<feOffset dy="0.5"/>
<feGaussianBlur stdDeviation="0.5"/>
<feColorMatrix type="matrix" values="0 0 0 0 0.87451 0 0 0 0 0.929412 0 0 0 0 0.964706 0 0 0 0.4 0"/>
<feBlend mode="normal" in2="effect4_dropShadow_4071_1969" result="effect5_dropShadow_4071_1969"/>
<feBlend mode="normal" in="SourceGraphic" in2="effect5_dropShadow_4071_1969" result="shape"/>
</filter>
<filter id="filter1_ddddd_4071_1969" x="26.7598" y="29.9688" width="44.7427" height="44.7407" filterUnits="userSpaceOnUse" color-interpolation-filters="sRGB">
<feFlood flood-opacity="0" result="BackgroundImageFix"/>
<feColorMatrix in="SourceAlpha" type="matrix" values="0 0 0 0 0 0 0 0 0 0 0 0 0 0 0 0 0 0 127 0" result="hardAlpha"/>
<feOffset dy="1.5"/>
<feGaussianBlur stdDeviation="1"/>
<feColorMatrix type="matrix" values="0 0 0 0 0.0392157 0 0 0 0 0.129412 0 0 0 0 0.372549 0 0 0 0.12 0"/>
<feBlend mode="normal" in2="BackgroundImageFix" result="effect1_dropShadow_4071_1969"/>
<feColorMatrix in="SourceAlpha" type="matrix" values="0 0 0 0 0 0 0 0 0 0 0 0 0 0 0 0 0 0 127 0" result="hardAlpha"/>
<feOffset dy="2"/>
<feGaussianBlur stdDeviation="3"/>
<feColorMatrix type="matrix" values="0 0 0 0 0.0392157 0 0 0 0 0.129412 0 0 0 0 0.372549 0 0 0 0.08 0"/>
<feBlend mode="normal" in2="effect1_dropShadow_4071_1969" result="effect2_dropShadow_4071_1969"/>
<feColorMatrix in="SourceAlpha" type="matrix" values="0 0 0 0 0 0 0 0 0 0 0 0 0 0 0 0 0 0 127 0" result="hardAlpha"/>
<feOffset dy="4"/>
<feGaussianBlur stdDeviation="4.5"/>
<feColorMatrix type="matrix" values="0 0 0 0 0.0392157 0 0 0 0 0.129412 0 0 0 0 0.372549 0 0 0 0.04 0"/>
<feBlend mode="normal" in2="effect2_dropShadow_4071_1969" result="effect3_dropShadow_4071_1969"/>
<feColorMatrix in="SourceAlpha" type="matrix" values="0 0 0 0 0 0 0 0 0 0 0 0 0 0 0 0 0 0 127 0" result="hardAlpha"/>
<feOffset dy="10"/>
<feGaussianBlur stdDeviation="8.75"/>
<feColorMatrix type="matrix" values="0 0 0 0 0.0392157 0 0 0 0 0.129412 0 0 0 0 0.372549 0 0 0 0.04 0"/>
<feBlend mode="normal" in2="effect3_dropShadow_4071_1969" result="effect4_dropShadow_4071_1969"/>
<feColorMatrix in="SourceAlpha" type="matrix" values="0 0 0 0 0 0 0 0 0 0 0 0 0 0 0 0 0 0 127 0" result="hardAlpha"/>
<feOffset dy="0.5"/>
<feGaussianBlur stdDeviation="0.5"/>
<feColorMatrix type="matrix" values="0 0 0 0 0.537255 0 0 0 0 0.631373 0 0 0 0 0.870588 0 0 0 0.4 0"/>
<feBlend mode="normal" in2="effect4_dropShadow_4071_1969" result="effect5_dropShadow_4071_1969"/>
<feBlend mode="normal" in="SourceGraphic" in2="effect5_dropShadow_4071_1969" result="shape"/>
</filter>
<clipPath id="clip0_4071_1969">
<rect width="19.7499" height="19.7499" fill="white" transform="translate(22.2656 23.832) rotate(24.3769)"/>
</clipPath>
<clipPath id="clip1_4071_1969">
<rect width="11.5924" height="11.5924" fill="white" transform="translate(33.6465 23.873) rotate(24.3769)"/>
</clipPath>
<clipPath id="clip2_4071_1969">
<rect width="11.5924" height="11.5924" fill="white" transform="translate(10.3379 26.5693) rotate(-11.2152)"/>
</clipPath>
<clipPath id="clip3_4071_1969">
<rect width="3.4162" height="3.4162" fill="white" transform="matrix(0.939764 0.341825 0.341824 -0.939764 31.7949 24.291)"/>
</clipPath>
</defs>
</svg>
