<svg width="47" height="22" viewBox="0 0 47 22" fill="none" xmlns="http://www.w3.org/2000/svg">
<g clip-path="url(#clip0_4071_1912)">
<path d="M36.0427 6.49246L34.4655 7.40288C33.6338 6.76273 32.7823 6.46191 31.6625 6.46191C30.9516 6.4617 30.2502 6.62457 29.6122 6.93804C28.9743 7.25152 28.4168 7.70719 27.9827 8.27C27.5486 8.83275 27.2495 9.48768 27.1085 10.1842C26.9674 10.8808 26.9882 11.6003 27.1691 12.2876C27.35 12.9749 27.6863 13.6115 28.1521 14.1483C28.6179 14.6852 29.2007 15.1081 29.8557 15.3843C30.5107 15.6605 31.2203 15.7827 31.9299 15.7416C32.6396 15.7004 33.3304 15.497 33.949 15.147V15.6285C33.9494 15.6606 33.9625 15.6913 33.9854 15.7138C34.0083 15.7363 34.0392 15.7489 34.0714 15.7487H36.111C36.1431 15.7487 36.1738 15.7361 36.1966 15.7135C36.2194 15.6911 36.2323 15.6605 36.2327 15.6285V6.59561C36.2325 6.57362 36.2263 6.55208 36.2149 6.53326C36.2034 6.5145 36.187 6.49917 36.1675 6.48897C36.1481 6.47877 36.1262 6.47402 36.1042 6.47522C36.0822 6.47648 36.061 6.48368 36.0427 6.49601V6.49246ZM31.6625 13.558C31.1772 13.5582 30.7027 13.4144 30.2991 13.145C29.8954 12.8755 29.5808 12.4924 29.395 12.0442C29.2092 11.5959 29.1605 11.1027 29.2551 10.6268C29.3497 10.1509 29.5833 9.71371 29.9265 9.37057C30.2696 9.02742 30.7068 8.79375 31.1828 8.699C31.6588 8.60431 32.1522 8.65285 32.6006 8.83847C33.049 9.02415 33.4322 9.33855 33.7019 9.74197C33.9715 10.1454 34.1155 10.6197 34.1155 11.1049C34.1155 11.7554 33.857 12.3793 33.3971 12.8393C32.937 13.2993 32.3131 13.5578 31.6625 13.558Z" fill="#210F60"/>
<path d="M8.11247 3.27347C6.77844 3.26896 5.47812 3.69007 4.40237 4.47499C3.32661 5.25989 2.5321 6.36727 2.13548 7.63453C2.13015 7.65182 2.12898 7.67009 2.13202 7.68793C2.13508 7.70577 2.14228 7.72262 2.15305 7.73719C2.16383 7.75175 2.17788 7.76364 2.19408 7.77182C2.21029 7.78006 2.22819 7.78437 2.24637 7.78442H4.64556C4.66695 7.78464 4.68796 7.77891 4.70628 7.7679C4.7246 7.75693 4.7395 7.74111 4.74934 7.72219C5.08009 7.10353 5.57721 6.58851 6.18515 6.23467C6.79312 5.88083 7.48798 5.70214 8.19211 5.7185C10.2216 5.75527 11.7926 7.41597 11.8659 9.32981C11.8982 10.1809 11.6391 11.0178 11.131 11.7033C10.6229 12.3888 9.89601 12.8824 9.0692 13.1032C8.2424 13.324 7.3647 13.2589 6.57995 12.9187C5.79514 12.5784 5.14971 11.9831 4.74934 11.2303C4.73961 11.2116 4.72493 11.1959 4.70688 11.185C4.68884 11.174 4.66812 11.1681 4.64698 11.1681H2.24637C2.22819 11.1681 2.21029 11.1724 2.19408 11.1807C2.17788 11.1888 2.16383 11.2007 2.15305 11.2153C2.14228 11.2299 2.13508 11.2467 2.13202 11.2646C2.12898 11.2824 2.13015 11.3007 2.13548 11.318C2.47746 12.4128 3.11769 13.3919 3.9851 14.1466C4.85252 14.9013 5.91319 15.4022 7.04932 15.5934C8.18551 15.7847 9.35268 15.659 10.4214 15.2302C11.4901 14.8015 12.4184 14.0864 13.1034 13.1645C13.7884 12.2426 14.2032 11.1498 14.3018 10.0075C14.4003 8.8653 14.1788 7.7182 13.6618 6.69356C13.1448 5.66898 12.3525 4.80697 11.3729 4.20324C10.3934 3.59951 9.26475 3.27767 8.11247 3.27347Z" fill="#1DCF9F"/>
<path fill-rule="evenodd" clip-rule="evenodd" d="M4.55805 10.6423H1.6167C1.60028 10.6423 1.58403 10.6389 1.56889 10.6325C1.55373 10.6261 1.53998 10.6167 1.52841 10.6049C1.51683 10.5931 1.50768 10.579 1.50146 10.5636C1.49525 10.5482 1.4921 10.5316 1.49219 10.5149V8.50085C1.4921 8.48415 1.49525 8.46763 1.50146 8.45219C1.50768 8.43675 1.51683 8.42274 1.52841 8.4109C1.53998 8.39906 1.55373 8.38968 1.56889 8.38324C1.58403 8.37686 1.60028 8.37354 1.6167 8.37354H4.55805C4.57446 8.37354 4.5907 8.37686 4.60585 8.38324C4.621 8.38968 4.63476 8.39906 4.64633 8.4109C4.6579 8.42274 4.66706 8.43675 4.67328 8.45219C4.67949 8.46763 4.68264 8.48415 4.68255 8.50085V10.5149C4.68264 10.5316 4.67949 10.5482 4.67328 10.5636C4.66706 10.579 4.6579 10.5931 4.64633 10.6049C4.63476 10.6167 4.621 10.6261 4.60585 10.6325C4.5907 10.6389 4.57446 10.6423 4.55805 10.6423Z" fill="#210F60"/>
<path d="M25.958 8.50721C25.958 6.08516 24.0142 4.02871 21.6001 3.98486H17.0681C17.0378 3.98486 17.0089 3.99686 16.9875 4.01821C16.9661 4.03956 16.9541 4.06852 16.9541 4.09872V15.569C16.9541 15.5992 16.9661 15.6282 16.9875 15.6495C17.0089 15.6709 17.0378 15.6829 17.0681 15.6829H19.1125C19.1427 15.6829 19.1717 15.6709 19.1931 15.6495C19.2145 15.6282 19.2265 15.5992 19.2265 15.569V13.1208H21.5676C23.9972 13.0946 25.958 11.2694 25.958 8.51004V8.50721ZM21.5173 10.8522H19.2258V6.25556H21.5173C22.7147 6.25556 23.6849 7.31631 23.6849 8.50934C23.6849 9.9944 22.7147 10.8515 21.5173 10.8515" fill="#210F60"/>
<path d="M46.4775 6.46191H44.3922C44.335 6.46191 44.2792 6.47877 44.2315 6.51035C44.1839 6.54193 44.1465 6.58682 44.1242 6.63951L41.9048 11.7766L39.7173 6.63951C39.6947 6.58682 39.6572 6.54193 39.6094 6.51041C39.5617 6.47882 39.5057 6.46197 39.4485 6.46191L37.3426 6.47326C37.3241 6.47359 37.306 6.4785 37.2898 6.48755C37.2736 6.49655 37.2599 6.50942 37.2499 6.52502C37.2399 6.54062 37.2338 6.55846 37.2323 6.5769C37.2308 6.59539 37.2338 6.61399 37.2412 6.63101L40.6787 14.7032L39.2535 18.0022C39.2461 18.0194 39.2431 18.0382 39.2447 18.0569C39.2464 18.0756 39.2527 18.0936 39.2631 18.1093C39.2734 18.1249 39.2874 18.1378 39.304 18.1466C39.3205 18.1554 39.339 18.16 39.3577 18.1599H41.4424C41.4996 18.1599 41.5557 18.1431 41.6034 18.1115C41.6512 18.0799 41.6886 18.035 41.7112 17.9823L46.5811 6.61961C46.5885 6.60242 46.5915 6.58366 46.5899 6.56501C46.5883 6.54641 46.5821 6.52841 46.5718 6.51281C46.5615 6.49715 46.5475 6.48433 46.5311 6.47544C46.5146 6.46655 46.4963 6.46191 46.4775 6.46191Z" fill="#210F60"/>
</g>
<defs>
<clipPath id="clip0_4071_1912">
<rect width="46.3639" height="21.8183" fill="white" transform="translate(0.409668)"/>
</clipPath>
</defs>
</svg>
