<svg width="94" height="17" viewBox="0 0 94 17" fill="none" xmlns="http://www.w3.org/2000/svg">
<g clip-path="url(#clip0_4071_1918)">
<path d="M13.6506 1.56934H1.22524C0.828684 1.56934 0.465175 1.89697 0.465175 2.3229V3.69898C0.465175 4.12491 0.828684 4.48532 1.22524 4.48532H13.6506C14.0802 4.48532 14.4107 4.12491 14.4437 3.69898V2.35567C14.4437 1.89697 14.0802 1.56934 13.6506 1.56934ZM13.6506 9.3016H1.22524C1.02696 9.3016 0.828684 9.39989 0.663453 9.53094C0.531268 9.662 0.432129 9.85858 0.432129 10.0879V11.464C0.432129 11.8899 0.795638 12.2503 1.19219 12.2503H13.6176C14.0472 12.2503 14.3776 11.9227 14.4107 11.464V10.0879C14.4437 9.62923 14.0802 9.3016 13.6506 9.3016ZM8.23104 13.135H1.22524C1.02696 13.135 0.828684 13.2005 0.696499 13.3643C0.564314 13.4954 0.465175 13.6919 0.465175 13.9213V15.2974C0.465175 15.7233 0.828684 16.0837 1.22524 16.0837H8.198C8.6276 16.0837 8.95806 15.7233 8.95806 15.2974V13.8885C8.99111 13.4954 8.66064 13.135 8.23104 13.135ZM14.4437 5.43547H1.22524C1.02696 5.43547 0.828684 5.50099 0.696499 5.66481C0.564314 5.79587 0.465175 5.99245 0.465175 6.2218V7.59788C0.465175 8.02381 0.828684 8.38421 1.22524 8.38421H14.4107C14.8403 8.38421 15.1708 8.02381 15.1708 7.59788V6.2218C15.2038 5.7631 14.8733 5.43547 14.4437 5.43547Z" fill="#00C3F7"/>
<path d="M28.8807 4.68523C28.4841 4.29206 28.0545 3.99719 27.5258 3.76784C27.0301 3.53849 26.4683 3.4402 25.9065 3.4402C25.3778 3.4402 24.849 3.53849 24.3533 3.76784C24.0229 3.93166 23.7255 4.12824 23.4941 4.39035V4.161C23.4941 4.02995 23.428 3.93166 23.3619 3.83337C23.2628 3.73508 23.1637 3.66955 23.0315 3.66955H21.28C21.1478 3.66955 21.0157 3.73508 20.9496 3.83337C20.8504 3.93166 20.8174 4.02995 20.8174 4.161V15.6283C20.8174 15.7594 20.8835 15.8577 20.9496 15.956C21.0487 16.0543 21.1478 16.087 21.28 16.087H23.0315C23.1637 16.087 23.2628 16.0543 23.3619 15.956C23.4611 15.8577 23.4941 15.7594 23.4941 15.6283V11.6967C23.7585 11.9588 24.0559 12.1881 24.4194 12.2864C24.8821 12.4503 25.3778 12.5485 25.8404 12.5485C26.4022 12.5485 26.964 12.4503 27.4597 12.2209C27.9884 12.0243 28.4511 11.6967 28.8146 11.3035C29.2111 10.8776 29.5416 10.3861 29.7399 9.86191C29.9712 9.27216 30.1034 8.61688 30.0703 7.99437C30.0703 7.3391 29.9712 6.71658 29.7399 6.09407C29.6077 5.60261 29.2772 5.11116 28.8807 4.68523ZM27.3275 8.84623C27.2284 9.07558 27.0962 9.30492 26.9309 9.50151C26.5674 9.89467 26.0717 10.0913 25.543 10.0913C25.2786 10.0913 25.0143 10.0257 24.7829 9.92744C24.5516 9.82915 24.3203 9.66533 24.1551 9.50151C23.9898 9.30492 23.8246 9.07558 23.7255 8.84623C23.5272 8.32201 23.5272 7.76502 23.7255 7.2408C23.8246 7.01146 23.9568 6.78211 24.1551 6.58553C24.3533 6.38894 24.5516 6.25789 24.7829 6.12683C25.0143 6.02854 25.2786 5.96302 25.543 5.96302C25.8074 5.96302 26.0717 6.02854 26.3361 6.12683C26.5674 6.22513 26.7657 6.38894 26.964 6.55276C27.1292 6.74935 27.2614 6.94593 27.3605 7.20804C27.5258 7.73226 27.5258 8.32201 27.3275 8.84623ZM39.6207 3.70231H37.8692C37.7371 3.70231 37.6379 3.76784 37.5388 3.83337C37.4396 3.93166 37.4066 4.06271 37.4066 4.19377V4.39035C37.1753 4.12824 36.9109 3.93166 36.6135 3.8006C36.1508 3.57126 35.6221 3.47296 35.0934 3.47296C33.9698 3.47296 32.8793 3.93166 32.0862 4.71799C31.6896 5.14392 31.3591 5.63538 31.1278 6.1596C30.8634 6.74935 30.7643 7.40462 30.7643 8.0599C30.7643 8.71518 30.8634 9.37045 31.1278 9.9602C31.3591 10.4844 31.6896 10.9759 32.0862 11.4018C32.8793 12.1881 33.9367 12.6468 35.0603 12.6468C35.5891 12.6468 36.1178 12.5485 36.5804 12.3192C36.8779 12.1554 37.1753 11.9588 37.3736 11.7294V11.9588C37.3736 12.0898 37.4396 12.1881 37.5057 12.2864C37.6049 12.352 37.704 12.4175 37.8362 12.4175H39.5877C39.7198 12.4175 39.819 12.352 39.9181 12.2864C40.0173 12.1881 40.0503 12.0898 40.0503 11.9588V4.19377C40.0503 4.06271 40.0173 3.96442 39.9181 3.86613C39.852 3.73508 39.7529 3.70231 39.6207 3.70231ZM37.2414 8.81347C37.1422 9.04281 37.01 9.27216 36.8448 9.46874C36.6796 9.63256 36.4483 9.79638 36.2169 9.92744C35.7212 10.1568 35.1595 10.1568 34.6638 9.92744C34.4324 9.82915 34.2011 9.66533 34.0359 9.46874C33.8707 9.27216 33.7054 9.04281 33.6393 8.81347C33.4411 8.28925 33.4411 7.73226 33.6393 7.20804C33.7385 6.97869 33.8707 6.74935 34.0359 6.55276C34.2011 6.35618 34.4324 6.22513 34.6638 6.09407C35.1595 5.86472 35.7212 5.86472 36.2169 6.09407C36.4483 6.19236 36.6465 6.35618 36.8448 6.52C37.01 6.71658 37.1422 6.91317 37.2414 7.17528C37.4727 7.73226 37.4727 8.32201 37.2414 8.81347ZM57.0361 7.79779C56.7717 7.56844 56.5073 7.40462 56.1769 7.27357C55.8464 7.14251 55.5159 7.04422 55.1524 6.97869L53.8306 6.71658C53.5001 6.65106 53.2358 6.55276 53.1036 6.45447C53.0044 6.38894 52.9383 6.25789 52.9383 6.12683C52.9383 5.99578 53.0044 5.86472 53.2027 5.76643C53.434 5.63538 53.6984 5.56985 53.9297 5.60261C54.2602 5.60261 54.6237 5.66814 54.9211 5.7992C55.2185 5.93025 55.5159 6.09407 55.7803 6.25789C56.1769 6.48724 56.5073 6.45447 56.7387 6.19236L57.3665 5.47156C57.4987 5.3405 57.5648 5.17668 57.5648 5.01286C57.5648 4.84905 57.4657 4.65246 57.3335 4.55417C57.0691 4.32482 56.6395 4.06271 56.0447 3.83337C55.4829 3.60402 54.7559 3.47296 53.8967 3.47296C53.3679 3.47296 52.8722 3.53849 52.3766 3.70231C51.947 3.83337 51.5504 4.02995 51.2199 4.29206C50.8895 4.52141 50.6581 4.84904 50.4599 5.20945C50.2946 5.56985 50.1955 5.93025 50.1955 6.32342C50.1955 7.04422 50.4268 7.63397 50.8564 8.0599C51.286 8.48583 51.8478 8.7807 52.5748 8.91176L53.9628 9.20663C54.2602 9.27216 54.5576 9.33769 54.855 9.46874C55.0203 9.53427 55.1194 9.66533 55.1194 9.86191C55.1194 10.0257 55.0533 10.1568 54.855 10.2878C54.6898 10.4189 54.3924 10.4844 54.0289 10.4844C53.6654 10.4844 53.2688 10.4189 52.9383 10.2551C52.6079 10.0913 52.3105 9.89467 52.0461 9.66533C51.9139 9.56703 51.7817 9.50151 51.6495 9.43598C51.4843 9.40322 51.286 9.43598 51.0877 9.5998L50.3277 10.1895C50.1294 10.3534 49.9972 10.6155 50.0633 10.8448C50.0964 11.1069 50.3277 11.3363 50.6912 11.6312C51.6495 12.2864 52.8061 12.6141 53.9628 12.5813C54.4915 12.5813 55.0533 12.5158 55.549 12.352C56.0116 12.2209 56.4082 12.0243 56.7717 11.7294C57.1022 11.4673 57.3996 11.1397 57.5648 10.7793C57.7631 10.4189 57.8292 10.0257 57.8292 9.5998C57.8292 9.2394 57.7631 8.87899 57.5979 8.51859C57.4657 8.28925 57.2674 8.02714 57.0361 7.79779ZM64.6367 9.89467C64.5706 9.76362 64.4054 9.66533 64.2402 9.63256C64.0749 9.63256 63.9097 9.69809 63.7775 9.76362C63.5792 9.89467 63.3149 9.99296 63.0505 9.99296C62.9844 9.99296 62.8853 9.99296 62.7861 9.9602C62.687 9.9602 62.6209 9.89467 62.5548 9.82915C62.4887 9.76362 62.4226 9.66533 62.3565 9.56704C62.2904 9.43598 62.2574 9.27216 62.2904 9.10834V5.96302H64.5706C64.7028 5.96302 64.835 5.89749 64.9341 5.7992C65.0333 5.7009 65.0994 5.60261 65.0994 5.47156V4.12824C65.0994 3.99719 65.0333 3.86613 64.9341 3.8006C64.835 3.70231 64.7358 3.66955 64.6037 3.66955H62.3235V1.5399C62.3235 1.40884 62.2904 1.27779 62.1913 1.21226C62.0921 1.11397 61.993 1.08121 61.8608 1.08121H60.1094C59.9772 1.08121 59.845 1.11397 59.7789 1.21226C59.6798 1.31055 59.6467 1.44161 59.6467 1.5399V3.70231H58.6553C58.5232 3.70231 58.391 3.76784 58.3249 3.86613C58.2257 3.96442 58.1927 4.06271 58.1927 4.19377V5.53709C58.1927 5.66814 58.2257 5.76643 58.3249 5.86472C58.391 5.96301 58.5232 6.02854 58.6553 6.02854H59.6467V9.76362C59.6467 10.2223 59.7128 10.6482 59.9111 11.0414C60.0763 11.369 60.3076 11.6639 60.572 11.8933C60.8364 12.1226 61.1669 12.2864 61.5304 12.3847C61.8939 12.483 62.2574 12.5485 62.6209 12.5485C63.1166 12.5485 63.5792 12.483 64.0419 12.3192C64.4715 12.1881 64.868 11.926 65.1655 11.6312C65.3637 11.4346 65.3968 11.1069 65.2315 10.8776L64.6367 9.89467ZM74.2201 3.70231H72.4687C72.3365 3.70231 72.2373 3.76784 72.1382 3.83337C72.0391 3.93166 72.006 4.06271 72.006 4.19377V4.39035C71.7747 4.12824 71.5103 3.93166 71.2129 3.8006C70.7503 3.57126 70.2215 3.47296 69.6928 3.47296C68.5692 3.47296 67.5117 3.93166 66.7186 4.71799C66.3221 5.14392 65.9916 5.63538 65.7603 6.1596C65.4959 6.74935 65.3968 7.40462 65.3968 8.02714C65.3968 8.68241 65.4959 9.30492 65.7603 9.92744C65.9916 10.4517 66.3221 10.9431 66.7186 11.369C67.5117 12.1554 68.5692 12.6141 69.6928 12.6141C70.2215 12.6141 70.7503 12.5158 71.2129 12.2864C71.5103 12.1226 71.8077 11.926 72.006 11.6967V11.926C72.006 12.0571 72.0391 12.1554 72.1382 12.2537C72.2373 12.352 72.3365 12.3847 72.4687 12.3847H74.2201C74.4845 12.3847 74.6828 12.1881 74.6828 11.926V4.19377C74.6828 4.06271 74.6497 3.96442 74.5506 3.86613C74.4514 3.73508 74.3523 3.70231 74.2201 3.70231ZM71.8408 8.81347C71.7416 9.04281 71.6095 9.27216 71.4442 9.46874C71.246 9.63256 71.0477 9.79638 70.8164 9.92744C70.585 10.0257 70.2876 10.0913 70.0232 10.0913C69.7589 10.0913 69.4945 10.0257 69.2632 9.92744C69.0319 9.82915 68.8005 9.66533 68.6353 9.46874C68.4701 9.27216 68.3048 9.04281 68.2387 8.81347C68.0405 8.28925 68.0405 7.73226 68.2387 7.20804C68.3379 6.97869 68.4701 6.74935 68.6353 6.55276C68.8336 6.35618 69.0319 6.22513 69.2632 6.09407C69.4945 5.99578 69.7589 5.93025 70.0232 5.93025C70.2876 5.93025 70.552 5.99578 70.8164 6.09407C71.0477 6.19236 71.246 6.35618 71.4442 6.52C71.6095 6.71658 71.7747 6.91317 71.8408 7.17528C72.0721 7.73226 72.0721 8.32201 71.8408 8.81347ZM83.8035 9.76362L82.8121 9.01005C82.6139 8.84623 82.4486 8.81347 82.2834 8.87899C82.1512 8.94452 82.019 9.04281 81.9199 9.14111C81.6886 9.40322 81.4573 9.63256 81.1598 9.82915C80.8624 9.99296 80.532 10.0913 80.1684 10.0585C79.7719 10.0585 79.4084 9.9602 79.0779 9.73085C78.7475 9.50151 78.5161 9.17387 78.384 8.81347C78.2848 8.55136 78.2518 8.28925 78.2518 8.02714C78.2518 7.76502 78.2848 7.47015 78.384 7.20804C78.4831 6.97869 78.6153 6.74935 78.7805 6.55276C78.9788 6.35618 79.1771 6.22513 79.4084 6.12683C79.6397 6.02854 79.9371 5.96302 80.2015 5.96302C80.532 5.96302 80.8955 6.02854 81.1598 6.19236C81.4573 6.38894 81.6886 6.61829 81.9199 6.8804C82.019 6.97869 82.1512 7.07698 82.2834 7.14251C82.4486 7.20804 82.6139 7.17528 82.8121 7.01146L83.8035 6.25789C83.9357 6.1596 84.0349 6.06131 84.0679 5.93025C84.134 5.76643 84.1009 5.60261 84.0349 5.47156C83.6383 4.88181 83.1096 4.39035 82.4817 4.02995C81.8208 3.66955 81.0276 3.47296 80.1354 3.47296C79.5075 3.47296 78.8796 3.60402 78.3179 3.83337C77.7561 4.06271 77.2604 4.39035 76.8308 4.81628C76.4012 5.24221 76.0707 5.73367 75.8394 6.25789C75.3767 7.40462 75.3767 8.71518 75.8394 9.86191C76.0707 10.4189 76.4012 10.9104 76.8308 11.3035C77.723 12.1554 78.8796 12.6141 80.1354 12.6141C81.0276 12.6141 81.8208 12.4175 82.4817 12.0571C83.1096 11.6967 83.6383 11.2052 84.0349 10.6155C84.134 10.4844 84.134 10.3206 84.0679 10.1568C84.0018 9.99296 83.9027 9.86191 83.8035 9.76362ZM93.0895 11.5656L90.3467 7.53568L92.693 4.45588C92.7921 4.32482 92.8252 4.12824 92.7921 3.96442C92.7591 3.83337 92.6269 3.70231 92.3625 3.70231H90.5119C90.4128 3.70231 90.3136 3.73508 90.2145 3.76784C90.0823 3.83337 90.0162 3.89889 89.9501 4.02995L88.0665 6.65105H87.6039V0.458693C87.6039 0.327638 87.5708 0.229347 87.4717 0.131055C87.3725 0.0327638 87.2734 0 87.1412 0H85.3898C85.2576 0 85.1584 0.0327638 85.0593 0.131055C84.9601 0.229347 84.9271 0.327638 84.9271 0.458693V11.8605C84.9271 11.9916 84.9932 12.1226 85.0593 12.1881C85.1584 12.2864 85.2576 12.3192 85.3898 12.3192H87.1412C87.2734 12.3192 87.3725 12.2537 87.4717 12.1881C87.5708 12.0898 87.6039 11.9916 87.6039 11.8605V8.84623H88.0995L90.1484 11.9916C90.2806 12.2209 90.5119 12.352 90.7432 12.352H92.693C92.9904 12.352 93.1226 12.2209 93.1556 12.0898C93.2217 11.926 93.1887 11.7294 93.0895 11.5656ZM49.5346 3.70231H47.5848C47.4527 3.70231 47.2874 3.73508 47.1883 3.86613C47.0891 3.96442 47.0231 4.06271 47.0231 4.19377L45.569 9.50151H45.2055L43.6523 4.161C43.6193 4.06271 43.5862 3.93166 43.4871 3.83337C43.388 3.73508 43.2558 3.66955 43.1236 3.66955H41.1078C40.8434 3.66955 40.6782 3.76784 40.6121 3.93166C40.546 4.09548 40.546 4.2593 40.6121 4.39035L43.0906 11.8933C43.1236 11.9916 43.1897 12.1226 43.2888 12.1881C43.388 12.2864 43.5202 12.3192 43.6523 12.3192H44.7098L44.6107 12.5485L44.3794 13.2366C44.3133 13.4332 44.1811 13.6297 43.9828 13.7936C43.8176 13.9246 43.6193 13.9902 43.388 13.9902C43.2227 13.9902 43.0245 13.9574 42.8592 13.8919C42.694 13.8263 42.5288 13.728 42.3966 13.6297C42.2644 13.5315 42.0992 13.4987 41.967 13.4987H41.9339C41.7357 13.4987 41.5704 13.597 41.5043 13.7608L40.8765 14.6782C40.6121 15.0714 40.7773 15.3335 40.9425 15.4645C41.273 15.7594 41.6696 15.9887 42.0992 16.1526C42.5618 16.3164 43.0575 16.3819 43.5862 16.3819C44.4785 16.3819 45.2386 16.1526 45.8003 15.6611C46.3952 15.1369 46.8248 14.4488 47.0561 13.6953L49.9311 4.42312C49.9972 4.2593 49.9972 4.09548 49.9311 3.93166C49.9311 3.8006 49.7989 3.70231 49.5346 3.70231Z" fill="#011B33"/>
</g>
<defs>
<clipPath id="clip0_4071_1918">
<rect width="92.7278" height="16.3819" fill="white" transform="translate(0.455566)"/>
</clipPath>
</defs>
</svg>
