<svg width="59" height="59" viewBox="0 0 59 59" fill="none" xmlns="http://www.w3.org/2000/svg">
<g clip-path="url(#clip0_4071_1996)">
<path fill-rule="evenodd" clip-rule="evenodd" d="M38.9482 5.91406H17.6853C16.9936 5.91406 16.4161 6.42984 16.3193 7.11743C15.6872 11.6049 11.613 13.9118 9.83343 14.6899C9.33064 14.9097 9.00391 15.4061 9.00391 15.9568V34.2172C9.00391 46.167 28.3167 53.7814 28.3167 53.7814C28.3167 53.7814 47.6295 46.167 47.6295 34.2172V15.9567C47.6295 15.4061 47.3028 14.9097 46.8 14.6899C45.0205 13.9118 40.9462 11.6049 40.3142 7.11743C40.2173 6.42984 39.6398 5.9717 38.9482 5.9717V5.91406Z" fill="#2A84C6"/>
<path fill-rule="evenodd" clip-rule="evenodd" d="M38.9482 5.91406H17.6853C16.9936 5.91406 16.4161 6.42984 16.3193 7.11743C15.6872 11.6049 11.613 13.9118 9.83343 14.6899C9.33064 14.9097 9.00391 15.4061 9.00391 15.9568V34.2172C9.00391 46.167 28.3167 53.7814 28.3167 53.7814C28.3167 53.7814 47.6295 46.167 47.6295 34.2172V15.9567C47.6295 15.4061 47.3028 14.9097 46.8 14.6899C45.0205 13.9118 40.9462 11.6049 40.3142 7.11743C40.2173 6.42984 39.6398 5.9717 38.9482 5.9717V5.91406Z" fill="white" fill-opacity="0.85"/>
<path fill-rule="evenodd" clip-rule="evenodd" d="M37.1596 9.4707C37.4216 10.2839 37.7725 11.0684 38.2097 11.8174C38.8525 12.9182 39.6844 13.9443 40.6823 14.867C41.8014 15.9018 42.9842 16.6758 44.0121 17.2355V34.1178C44.0121 38.6877 39.6542 42.7352 35.9983 45.326C33.0263 47.4321 29.9995 48.9458 28.3133 49.7203C26.6543 48.9597 23.695 47.4809 20.7399 45.4015C18.2395 43.6422 16.2738 41.8271 14.8973 40.0069C14.1479 39.0159 13.576 38.0221 13.1975 37.0531C12.8083 36.057 12.6191 35.0969 12.6191 34.1178V17.2355C13.647 16.6758 14.8299 15.9017 15.949 14.867C16.9469 13.9443 17.7787 12.9183 18.4215 11.8174C18.8588 11.0685 19.2096 10.2839 19.4717 9.4707H37.1596Z" fill="#1443BD"/>
<path fill-rule="evenodd" clip-rule="evenodd" d="M37.1596 9.4707C37.4216 10.2839 37.7725 11.0684 38.2097 11.8174C38.8525 12.9182 39.6844 13.9443 40.6823 14.867C41.8014 15.9018 42.9842 16.6758 44.0121 17.2355V34.1178C44.0121 38.6877 39.6542 42.7352 35.9983 45.326C33.0263 47.4321 29.9995 48.9458 28.3133 49.7203C26.6543 48.9597 23.695 47.4809 20.7399 45.4015C18.2395 43.6422 16.2738 41.8271 14.8973 40.0069C14.1479 39.0159 13.576 38.0221 13.1975 37.0531C12.8083 36.057 12.6191 35.0969 12.6191 34.1178V17.2355C13.647 16.6758 14.8299 15.9017 15.949 14.867C16.9469 13.9443 17.7787 12.9183 18.4215 11.8174C18.8588 11.0685 19.2096 10.2839 19.4717 9.4707H37.1596Z" fill="white" fill-opacity="0.5"/>
<g filter="url(#filter0_ddddd_4071_1996)">
<path fill-rule="evenodd" clip-rule="evenodd" d="M29.2424 18.9723L22.8944 28.6459C22.5529 29.1704 22.9202 29.8153 23.5359 29.8153H26.3794L22.8833 36.423C22.6225 36.9571 23.2945 37.4527 23.7067 37.0302L33.2153 27.4716C33.7005 26.9742 33.3563 26.1246 32.6698 26.1246H28.3698L30.1686 19.3922C30.3091 18.8192 29.5626 18.4807 29.2424 18.9723Z" fill="white"/>
</g>
<g filter="url(#filter1_ddddd_4071_1996)">
<path fill-rule="evenodd" clip-rule="evenodd" d="M15.6426 39.2069C15.6426 42.0227 13.3599 44.3054 10.5441 44.3054C7.72829 44.3054 5.44562 42.0227 5.44562 39.2069C5.44562 36.3911 7.72829 34.1084 10.5441 34.1084C13.3599 34.1084 15.6426 36.3911 15.6426 39.2069Z" fill="white"/>
<path fill-rule="evenodd" clip-rule="evenodd" d="M11.6307 37.721C11.6307 37.1211 11.1446 36.6347 10.5449 36.6347C9.94525 36.6347 9.45912 37.1211 9.45912 37.721V38.2653H8.91623V37.7213C8.91623 36.8219 9.64504 36.0928 10.544 36.0928H10.5441C11.4431 36.0928 12.1719 36.8219 12.1719 37.7213V38.2653H11.6307V37.721Z" fill="#1443BD"/>
<path fill-rule="evenodd" clip-rule="evenodd" d="M8.254 41.6951H12.8322C12.9417 41.6951 13.0312 41.5992 13.0312 41.4819V38.3539C13.0312 38.2366 12.9417 38.1406 12.8322 38.1406H8.254C8.14453 38.1406 8.05495 38.2366 8.05495 38.3539V41.4819C8.05495 41.5992 8.14453 41.6951 8.254 41.6951Z" fill="#1443BD"/>
<path fill-rule="evenodd" clip-rule="evenodd" d="M10.5297 39.1074C10.4213 39.1074 10.3333 39.1929 10.3333 39.2984L10.3333 39.9264C10.2219 39.9932 10.1473 40.1152 10.1473 40.2546C10.1473 40.4658 10.3185 40.637 10.5297 40.637C10.7409 40.637 10.9121 40.4658 10.9121 40.2546C10.9121 40.1152 10.8375 39.9932 10.7261 39.9264L10.7261 39.2984C10.7261 39.1942 10.6402 39.1094 10.5335 39.1075L10.5297 39.1074Z" fill="white"/>
</g>
<path fill-rule="evenodd" clip-rule="evenodd" d="M49.61 31.2306L48.0443 29.1687C47.8936 28.9703 47.6013 28.9671 47.4465 29.1621L45.7595 31.2875C45.5173 31.5926 45.0345 31.3966 45.0638 31.005L45.572 24.1998C45.5721 24.1978 45.5737 24.1963 45.5757 24.1963H49.8028C49.8047 24.1963 49.8064 24.1978 49.8065 24.1998L50.3109 30.9548C50.3405 31.3508 49.8484 31.5445 49.61 31.2306Z" fill="#F56D7E"/>
<path fill-rule="evenodd" clip-rule="evenodd" d="M53.3744 19.2591C53.3744 22.3492 50.8282 24.8542 47.6872 24.8542C44.5462 24.8542 42 22.3492 42 19.2591C42 16.1691 44.5462 13.6641 47.6872 13.6641C50.8282 13.6641 53.3744 16.1691 53.3744 19.2591Z" fill="#FFD666"/>
<path fill-rule="evenodd" clip-rule="evenodd" d="M51.6246 19.2594C51.6246 21.5012 49.8618 23.3185 47.6873 23.3185C45.5128 23.3185 43.75 21.5012 43.75 19.2594C43.75 17.0175 45.5128 15.2002 47.6873 15.2002C49.8618 15.2002 51.6246 17.0175 51.6246 19.2594Z" fill="#FAAD14"/>
<path fill-rule="evenodd" clip-rule="evenodd" d="M48.1045 17.8128L48.3456 18.3227C48.3956 18.4284 48.4922 18.5017 48.6039 18.5186L49.1432 18.6004C49.4246 18.643 49.537 19.0038 49.3334 19.211L48.9431 19.6079C48.8623 19.6901 48.8254 19.8086 48.8445 19.9248L48.9366 20.4852C48.9846 20.7776 48.6905 21.0006 48.4388 20.8626L47.9565 20.598C47.8565 20.5431 47.7371 20.5431 47.6372 20.598L47.1548 20.8626C46.9031 21.0006 46.6089 20.7776 46.657 20.4852L46.7491 19.9248C46.7682 19.8086 46.7313 19.6901 46.6505 19.6079L46.2602 19.211C46.0566 19.0038 46.169 18.643 46.4504 18.6004L46.9896 18.5186C47.1014 18.5017 47.198 18.4284 47.248 18.3227L47.4891 17.8128C47.615 17.5468 47.9786 17.5468 48.1045 17.8128Z" fill="white"/>
</g>
<defs>
<filter id="filter0_ddddd_4071_1996" x="5.26367" y="11.2354" width="45.6787" height="53.4536" filterUnits="userSpaceOnUse" color-interpolation-filters="sRGB">
<feFlood flood-opacity="0" result="BackgroundImageFix"/>
<feColorMatrix in="SourceAlpha" type="matrix" values="0 0 0 0 0 0 0 0 0 0 0 0 0 0 0 0 0 0 127 0" result="hardAlpha"/>
<feOffset dy="1.5"/>
<feGaussianBlur stdDeviation="1"/>
<feColorMatrix type="matrix" values="0 0 0 0 0.705882 0 0 0 0 0.831373 0 0 0 0 0.921569 0 0 0 0.12 0"/>
<feBlend mode="normal" in2="BackgroundImageFix" result="effect1_dropShadow_4071_1996"/>
<feColorMatrix in="SourceAlpha" type="matrix" values="0 0 0 0 0 0 0 0 0 0 0 0 0 0 0 0 0 0 127 0" result="hardAlpha"/>
<feOffset dy="2"/>
<feGaussianBlur stdDeviation="3"/>
<feColorMatrix type="matrix" values="0 0 0 0 0.705882 0 0 0 0 0.831373 0 0 0 0 0.921569 0 0 0 0.08 0"/>
<feBlend mode="normal" in2="effect1_dropShadow_4071_1996" result="effect2_dropShadow_4071_1996"/>
<feColorMatrix in="SourceAlpha" type="matrix" values="0 0 0 0 0 0 0 0 0 0 0 0 0 0 0 0 0 0 127 0" result="hardAlpha"/>
<feOffset dy="4"/>
<feGaussianBlur stdDeviation="4.5"/>
<feColorMatrix type="matrix" values="0 0 0 0 0.705882 0 0 0 0 0.831373 0 0 0 0 0.921569 0 0 0 0.04 0"/>
<feBlend mode="normal" in2="effect2_dropShadow_4071_1996" result="effect3_dropShadow_4071_1996"/>
<feColorMatrix in="SourceAlpha" type="matrix" values="0 0 0 0 0 0 0 0 0 0 0 0 0 0 0 0 0 0 127 0" result="hardAlpha"/>
<feOffset dy="10"/>
<feGaussianBlur stdDeviation="8.75"/>
<feColorMatrix type="matrix" values="0 0 0 0 0.705882 0 0 0 0 0.831373 0 0 0 0 0.921569 0 0 0 0.04 0"/>
<feBlend mode="normal" in2="effect3_dropShadow_4071_1996" result="effect4_dropShadow_4071_1996"/>
<feColorMatrix in="SourceAlpha" type="matrix" values="0 0 0 0 0 0 0 0 0 0 0 0 0 0 0 0 0 0 127 0" result="hardAlpha"/>
<feOffset dy="0.5"/>
<feGaussianBlur stdDeviation="0.5"/>
<feColorMatrix type="matrix" values="0 0 0 0 0.87451 0 0 0 0 0.929412 0 0 0 0 0.964706 0 0 0 0.4 0"/>
<feBlend mode="normal" in2="effect4_dropShadow_4071_1996" result="effect5_dropShadow_4071_1996"/>
<feBlend mode="normal" in="SourceGraphic" in2="effect5_dropShadow_4071_1996" result="shape"/>
</filter>
<filter id="filter1_ddddd_4071_1996" x="-12.9995" y="25.665" width="47.0854" height="47.0854" filterUnits="userSpaceOnUse" color-interpolation-filters="sRGB">
<feFlood flood-opacity="0" result="BackgroundImageFix"/>
<feColorMatrix in="SourceAlpha" type="matrix" values="0 0 0 0 0 0 0 0 0 0 0 0 0 0 0 0 0 0 127 0" result="hardAlpha"/>
<feOffset dy="1.5"/>
<feGaussianBlur stdDeviation="1"/>
<feColorMatrix type="matrix" values="0 0 0 0 0.0392157 0 0 0 0 0.129412 0 0 0 0 0.372549 0 0 0 0.12 0"/>
<feBlend mode="normal" in2="BackgroundImageFix" result="effect1_dropShadow_4071_1996"/>
<feColorMatrix in="SourceAlpha" type="matrix" values="0 0 0 0 0 0 0 0 0 0 0 0 0 0 0 0 0 0 127 0" result="hardAlpha"/>
<feOffset dy="2"/>
<feGaussianBlur stdDeviation="3"/>
<feColorMatrix type="matrix" values="0 0 0 0 0.0392157 0 0 0 0 0.129412 0 0 0 0 0.372549 0 0 0 0.08 0"/>
<feBlend mode="normal" in2="effect1_dropShadow_4071_1996" result="effect2_dropShadow_4071_1996"/>
<feColorMatrix in="SourceAlpha" type="matrix" values="0 0 0 0 0 0 0 0 0 0 0 0 0 0 0 0 0 0 127 0" result="hardAlpha"/>
<feOffset dy="4"/>
<feGaussianBlur stdDeviation="4.5"/>
<feColorMatrix type="matrix" values="0 0 0 0 0.0392157 0 0 0 0 0.129412 0 0 0 0 0.372549 0 0 0 0.04 0"/>
<feBlend mode="normal" in2="effect2_dropShadow_4071_1996" result="effect3_dropShadow_4071_1996"/>
<feColorMatrix in="SourceAlpha" type="matrix" values="0 0 0 0 0 0 0 0 0 0 0 0 0 0 0 0 0 0 127 0" result="hardAlpha"/>
<feOffset dy="10"/>
<feGaussianBlur stdDeviation="8.75"/>
<feColorMatrix type="matrix" values="0 0 0 0 0.0392157 0 0 0 0 0.129412 0 0 0 0 0.372549 0 0 0 0.04 0"/>
<feBlend mode="normal" in2="effect3_dropShadow_4071_1996" result="effect4_dropShadow_4071_1996"/>
<feColorMatrix in="SourceAlpha" type="matrix" values="0 0 0 0 0 0 0 0 0 0 0 0 0 0 0 0 0 0 127 0" result="hardAlpha"/>
<feOffset dy="0.5"/>
<feGaussianBlur stdDeviation="0.5"/>
<feColorMatrix type="matrix" values="0 0 0 0 0.537255 0 0 0 0 0.631373 0 0 0 0 0.870588 0 0 0 0.4 0"/>
<feBlend mode="normal" in2="effect4_dropShadow_4071_1996" result="effect5_dropShadow_4071_1996"/>
<feBlend mode="normal" in="SourceGraphic" in2="effect5_dropShadow_4071_1996" result="shape"/>
</filter>
<clipPath id="clip0_4071_1996">
<rect width="58" height="58" fill="white" transform="translate(0.5 0.914062)"/>
</clipPath>
</defs>
</svg>
