<svg width="1728" height="855" viewBox="0 0 1728 855" fill="none" xmlns="http://www.w3.org/2000/svg">
<g clip-path="url(#clip0_4071_3158)">
<rect width="1730" height="855" transform="translate(-2)" fill="#2E5C38"/>
<path d="M2607.2 1661.69C3073.13 1376.56 2887.15 729.286 2191.79 215.955C1496.43 -297.377 555.017 -482.374 89.0824 -197.248C-376.852 87.8782 -190.868 735.156 504.491 1248.49C1199.85 1761.82 2141.26 1946.82 2607.2 1661.69Z" stroke="white" stroke-opacity="0.01" stroke-width="19.2271" stroke-miterlimit="10"/>
<path d="M2541.31 1613.09C2982.89 1342.87 2806.63 729.436 2147.62 242.942C1488.62 -243.553 596.42 -418.878 154.845 -148.658C-286.731 121.561 -110.47 734.999 548.535 1221.49C1207.54 1707.99 2099.74 1883.31 2541.31 1613.09Z" stroke="white" stroke-opacity="0.01" stroke-width="19.2271" stroke-miterlimit="10"/>
<path d="M2475.52 1564.49C2892.72 1309.18 2726.19 729.598 2103.55 269.951C1480.91 -189.696 637.953 -355.346 220.746 -100.039C-196.462 155.269 -29.9272 734.854 592.711 1194.5C1215.35 1654.15 2058.31 1819.8 2475.52 1564.49Z" stroke="white" stroke-opacity="0.01" stroke-width="19.2271" stroke-miterlimit="10"/>
<path d="M2409.7 1515.9C2802.55 1275.49 2645.74 729.748 2059.45 296.938C1473.17 -135.872 679.427 -291.851 286.579 -51.4494C-106.27 188.952 50.5416 734.698 636.826 1167.51C1223.11 1600.32 2016.85 1756.3 2409.7 1515.9Z" stroke="white" stroke-opacity="0.01" stroke-width="19.2271" stroke-miterlimit="10"/>
<path d="M2343.85 1467.27C2712.33 1241.78 2565.24 729.891 2015.33 323.928C1465.41 -82.0351 720.903 -228.338 352.423 -2.849C-16.0568 222.64 131.027 734.533 680.944 1140.5C1230.86 1546.46 1975.37 1692.76 2343.85 1467.27Z" stroke="white" stroke-opacity="0.01" stroke-width="19.2271" stroke-miterlimit="10"/>
<path d="M2278.02 1418.7C2622.14 1208.11 2484.78 730.06 1971.22 350.934C1457.65 -28.1918 762.362 -164.823 418.242 45.7596C74.1211 256.342 211.482 734.396 725.046 1113.52C1238.61 1492.65 1933.9 1629.28 2278.02 1418.7Z" stroke="white" stroke-opacity="0.01" stroke-width="19.2271" stroke-miterlimit="10"/>
<path d="M2212.15 1370.1C2531.91 1174.42 2404.27 730.211 1927.06 377.922C1449.85 25.6325 803.78 -101.327 484.018 94.349C164.257 290.025 291.894 734.239 769.105 1086.53C1246.32 1438.82 1892.39 1565.78 2212.15 1370.1Z" stroke="white" stroke-opacity="0.01" stroke-width="19.2271" stroke-miterlimit="10"/>
<path d="M2146.35 1321.48C2441.75 1140.71 2323.84 730.353 1882.99 404.912C1442.15 79.4697 845.312 -37.8147 549.919 142.949C254.526 323.714 372.436 734.075 813.28 1059.52C1254.12 1384.96 1850.96 1502.24 2146.35 1321.48Z" stroke="white" stroke-opacity="0.01" stroke-width="19.2271" stroke-miterlimit="10"/>
<path d="M2080.47 1272.9C2351.5 1107.04 2243.32 730.523 1838.83 431.918C1434.34 133.313 886.716 25.7001 615.681 191.558C344.647 357.416 452.834 733.937 857.324 1032.54C1261.81 1331.15 1809.43 1438.76 2080.47 1272.9Z" stroke="white" stroke-opacity="0.01" stroke-width="19.2271" stroke-miterlimit="10"/>
<path d="M2014.68 1224.31C2261.36 1073.35 2162.89 730.673 1794.76 458.905C1426.62 187.137 928.217 89.1961 681.542 240.148C434.867 391.099 533.331 733.781 901.468 1005.55C1269.6 1277.32 1768.01 1375.26 2014.68 1224.31Z" stroke="white" stroke-opacity="0.01" stroke-width="19.2271" stroke-miterlimit="10"/>
<path d="M1948.92 1175.7C2171.22 1039.66 2082.48 730.835 1750.72 485.914C1418.95 240.993 969.779 152.728 747.472 288.767C525.165 424.806 613.902 733.635 945.672 978.556C1277.44 1223.48 1726.61 1311.74 1948.92 1175.7Z" stroke="white" stroke-opacity="0.01" stroke-width="19.2271" stroke-miterlimit="10"/>
<path d="M1882.97 1127.08C2080.92 1005.95 2001.91 730.961 1706.49 512.877C1411.08 294.794 1011.13 216.2 813.178 337.333C615.23 458.465 694.244 733.455 989.66 951.538C1285.08 1169.62 1685.03 1248.22 1882.97 1127.08Z" stroke="white" stroke-opacity="0.01" stroke-width="19.2271" stroke-miterlimit="10"/>
<path d="M1817.18 1078.49C1990.76 972.265 1921.47 731.128 1662.42 539.891C1403.37 348.655 1052.66 279.736 879.078 385.957C705.499 492.178 774.786 733.314 1033.83 924.551C1292.88 1115.79 1643.6 1184.71 1817.18 1078.49Z" stroke="white" stroke-opacity="0.01" stroke-width="19.2271" stroke-miterlimit="10"/>
<path d="M1751.42 1029.91C1900.64 938.594 1841.08 731.297 1618.38 566.898C1395.69 402.498 1094.19 343.251 944.968 434.565C795.748 525.88 855.312 733.177 1078.01 897.577C1300.7 1061.98 1602.2 1121.22 1751.42 1029.91Z" stroke="white" stroke-opacity="0.01" stroke-width="19.2271" stroke-miterlimit="10"/>
<path d="M1685.58 981.313C1810.44 904.905 1760.6 731.447 1574.26 593.885C1387.91 456.322 1135.63 406.747 1010.77 483.155C885.911 559.563 935.751 733.02 1122.09 870.583C1308.44 1008.15 1560.72 1057.72 1685.58 981.313Z" stroke="white" stroke-opacity="0.01" stroke-width="19.2271" stroke-miterlimit="10"/>
<path d="M1619.62 932.691C1720.12 871.195 1680 731.59 1530.03 620.875C1380.05 510.159 1177.01 470.259 1076.52 531.755C976.025 593.251 1016.14 732.856 1166.11 843.571C1316.09 954.287 1519.13 994.187 1619.62 932.691Z" stroke="white" stroke-opacity="0.01" stroke-width="19.2271" stroke-miterlimit="10"/>
<path d="M1553.87 884.081C1630 837.491 1599.61 731.726 1485.99 647.848C1372.37 563.969 1218.54 533.741 1142.41 580.331C1066.27 626.92 1096.66 732.685 1210.29 816.564C1323.91 900.442 1477.73 930.671 1553.87 884.081Z" stroke="white" stroke-opacity="0.01" stroke-width="19.2271" stroke-miterlimit="10"/>
<path d="M1488.08 835.518C1539.86 803.835 1519.19 731.91 1441.92 674.868C1364.65 617.827 1260.04 597.27 1208.27 628.953C1156.5 660.636 1177.16 732.562 1254.43 789.603C1331.7 846.645 1436.31 867.202 1488.08 835.518Z" stroke="white" stroke-opacity="0.01" stroke-width="19.2271" stroke-miterlimit="10"/>
</g>
<defs>
<clipPath id="clip0_4071_3158">
<rect width="1730" height="855" fill="white" transform="translate(-2)"/>
</clipPath>
</defs>
</svg>
