<svg width="65" height="19" viewBox="0 0 65 19" fill="none" xmlns="http://www.w3.org/2000/svg">
<g clip-path="url(#clip0_4071_1923)">
<path d="M19.9471 4.21533H22.7244C22.8058 4.21533 22.8639 4.28522 22.8639 4.35511V13.3942C22.8639 13.4758 22.7941 13.534 22.7244 13.534H19.9471C19.8657 13.534 19.8076 13.4641 19.8076 13.3942V4.36676C19.8076 4.28522 19.8657 4.21533 19.9471 4.21533Z" fill="black"/>
<path d="M30.782 4.30852L28.9459 9.20083C28.9343 9.22413 28.8994 9.22413 28.8878 9.20083L27.0401 4.30852C27.0169 4.25028 26.9704 4.21533 26.9007 4.21533H23.856C23.7514 4.21533 23.6817 4.32017 23.7166 4.41335L27.3771 13.4408C27.4003 13.4991 27.4468 13.534 27.5165 13.534H30.1893C30.2474 13.534 30.3055 13.4991 30.3287 13.4408L34.0009 4.425C34.0357 4.33182 33.966 4.22698 33.8614 4.22698H30.8982C30.8517 4.21533 30.7936 4.26193 30.782 4.30852Z" fill="black"/>
<path d="M59.9596 4.07715C57.0544 4.07715 54.9395 6.12726 54.9395 8.88792C54.9395 11.6486 57.0544 13.6987 59.9596 13.6987C62.8299 13.6987 64.9797 11.6253 64.9797 8.88792C64.9797 6.13891 62.8415 4.07715 59.9596 4.07715ZM59.9596 11.0778C58.8208 11.0778 58.0654 10.2042 58.0654 8.88792C58.0654 7.57166 58.8208 6.69803 59.9596 6.69803C61.0868 6.69803 61.8538 7.57166 61.8538 8.88792C61.8538 10.1925 61.0868 11.0778 59.9596 11.0778Z" fill="black"/>
<path d="M18.792 4.18426C18.7107 4.16096 18.6061 4.13767 18.5015 4.11437C18.3272 4.09107 16.4331 3.86976 15.3872 5.29086C15.3639 5.31415 15.3291 5.3025 15.3291 5.26756V4.52206V4.37063C15.3291 4.2891 15.2594 4.23085 15.1896 4.23085H12.4007C12.3193 4.23085 12.2612 4.30074 12.2612 4.37063V13.3981C12.2612 13.4797 12.331 13.5379 12.4007 13.5379H15.178C15.2594 13.5379 15.3175 13.468 15.3175 13.3981V10.0434C15.3175 7.53899 16.4795 6.90998 17.6184 6.90998C17.7578 6.90998 18.1413 6.90998 18.6991 7.06141C18.792 7.0847 18.885 7.01481 18.885 6.92163V4.31239C18.885 4.25415 18.8502 4.19591 18.792 4.18426Z" fill="black"/>
<path d="M21.3392 0C20.3631 0 19.5845 0.757143 19.5845 1.70066C19.5845 2.64418 20.3747 3.40132 21.3392 3.40132C22.3153 3.40132 23.0939 2.64418 23.0939 1.70066C23.0939 0.757143 22.3037 0 21.3392 0Z" fill="black"/>
<path d="M43.5284 4.21613H40.7511C40.6698 4.21613 40.6117 4.28602 40.6117 4.35591V5.24119C40.6117 5.27613 40.5652 5.28778 40.5536 5.25284C39.5542 3.14448 33.5928 3.55218 33.5928 8.86383C33.5928 13.826 38.6826 14.7113 40.5536 12.6379C40.5768 12.6146 40.6117 12.6262 40.6117 12.6612V13.3834C40.6117 13.4649 40.6814 13.5232 40.7511 13.5232H43.5284C43.6098 13.5232 43.6679 13.4533 43.6679 13.3834V4.36756C43.6679 4.28602 43.6098 4.21613 43.5284 4.21613ZM38.671 11.0654C37.4508 11.0654 36.5909 10.2034 36.5909 8.88713C36.5909 7.57086 37.4508 6.68559 38.671 6.68559C39.9144 6.68559 40.7511 7.58251 40.7511 8.88713C40.7511 10.1917 39.9144 11.0654 38.671 11.0654Z" fill="black"/>
<path d="M54.0299 4.21677H51.2526C51.1712 4.21677 51.1131 4.28666 51.1131 4.35655V5.24182C51.1131 5.27677 51.0667 5.28842 51.055 5.25347C50.044 3.12182 44.501 3.65765 44.501 8.59655C44.501 13.4423 49.556 13.85 51.0667 12.4289C51.0899 12.4056 51.1248 12.4289 51.1248 12.4522V12.8831C51.0899 14.9449 48.5101 15.8302 47.197 14.2693C47.1505 14.2111 47.0691 14.1994 47.011 14.246L44.652 15.7952C44.5823 15.8418 44.5707 15.935 44.6172 16.0049C47.6153 20.1051 54.1345 18.0201 54.181 12.9297V4.3682C54.181 4.28666 54.1113 4.21677 54.0299 4.21677ZM49.4398 10.5768C48.3358 10.5768 47.5572 9.80798 47.5572 8.6082C47.5572 7.40842 48.3242 6.62798 49.4398 6.62798C50.567 6.62798 51.3223 7.43171 51.3223 8.6082C51.3223 9.78468 50.567 10.5768 49.4398 10.5768Z" fill="black"/>
<path d="M11.2806 8.44449H8.49162C8.42189 8.44449 8.35217 8.50273 8.35217 8.58427C8.2592 9.72581 7.30631 10.6344 6.14424 10.6344C4.73814 10.6227 4.16873 9.4346 4.16873 9.4346C3.92469 8.98032 3.91307 8.53768 3.91307 8.44449C3.91307 8.43284 3.92469 8.4212 3.92469 8.4212L4.72652 7.97856L9.76989 5.18295C9.85124 5.13636 9.89772 5.05482 9.89772 4.97328V1.968C9.89772 1.86317 9.78151 1.79328 9.68855 1.83987L3.95955 5.00823C3.93631 5.01987 3.91307 5.00823 3.91307 4.98493V0.255696C3.91307 0.139213 3.78524 0.0693227 3.69228 0.139213L0.949801 1.90976C0.880077 1.95636 0.845215 2.02625 0.845215 2.10779V8.43284C0.868456 11.3449 3.22745 13.6979 6.13262 13.6979C8.99131 13.6979 11.3154 11.4265 11.42 8.58427C11.4316 8.51438 11.3619 8.44449 11.2806 8.44449Z" fill="black"/>
</g>
<defs>
<clipPath id="clip0_4071_1923">
<rect width="64.1345" height="18.1714" fill="white" transform="translate(0.865723)"/>
</clipPath>
</defs>
</svg>
