<svg width="96" height="96" viewBox="0 0 96 96" fill="none" xmlns="http://www.w3.org/2000/svg">
<path fill-rule="evenodd" clip-rule="evenodd" d="M48 84C52.7276 84 57.4089 83.0688 61.7766 81.2597C66.1443 79.4505 70.1129 76.7988 73.4558 73.4558C76.7988 70.1129 79.4505 66.1443 81.2597 61.7766C83.0688 57.4089 84 52.7276 84 48C84 43.2724 83.0688 38.5911 81.2597 34.2234C79.4505 29.8557 76.7988 25.8871 73.4558 22.5442C70.1129 19.2012 66.1443 16.5495 61.7766 14.7403C57.4089 12.9312 52.7276 12 48 12C38.4522 12 29.2955 15.7928 22.5442 22.5442C15.7928 29.2955 12 38.4522 12 48C12 57.5478 15.7928 66.7045 22.5442 73.4558C29.2955 80.2072 38.4522 84 48 84ZM38.948 31.472L64.844 44.424C65.5086 44.7562 66.0675 45.2668 66.4582 45.8988C66.8488 46.5308 67.0557 47.259 67.0557 48.002C67.0557 48.745 66.8488 49.4732 66.4582 50.1052C66.0675 50.7372 65.5086 51.2478 64.844 51.58L38.948 64.528C38.2159 64.8943 37.4023 65.0673 36.5845 65.0306C35.7668 64.9939 34.9719 64.7486 34.2757 64.3181C33.5794 63.8876 33.0048 63.2861 32.6065 62.5709C32.2082 61.8558 31.9994 61.0506 32 60.232V35.772C31.9994 34.9534 32.2082 34.1482 32.6065 33.433C33.0048 32.7179 33.5794 32.1164 34.2757 31.6859C34.9719 31.2554 35.7668 31.0101 36.5845 30.9734C37.4023 30.9367 38.2159 31.1057 38.948 31.472Z" fill="white"/>
<path d="M66.844 45.4282L40.948 32.4762C40.2159 32.1099 39.4023 31.9368 38.5845 31.9736C37.7668 32.0103 36.972 32.2556 36.2757 32.6861C35.5794 33.1166 35.0048 33.7181 34.6065 34.4332C34.2082 35.1484 33.9994 35.9536 34 36.7722V61.2362C33.9994 62.0548 34.2082 62.86 34.6065 63.5751C35.0048 64.2903 35.5794 64.8917 36.2757 65.3223C36.972 65.7528 37.7668 65.998 38.5845 66.0348C39.4023 66.0715 40.2159 65.8985 40.948 65.5322L66.844 52.5802C67.5075 52.2476 68.0654 51.737 68.4553 51.1055C68.8452 50.4739 69.0517 49.7464 69.0517 49.0042C69.0517 48.262 68.8452 47.5344 68.4553 46.9029C68.0654 46.2714 67.5075 45.7607 66.844 45.4282Z" stroke="white" stroke-width="4" stroke-linecap="round" stroke-linejoin="round"/>
<path d="M48 84C67.8823 84 84 67.8823 84 48C84 28.1177 67.8823 12 48 12C28.1177 12 12 28.1177 12 48C12 67.8823 28.1177 84 48 84Z" stroke="white" stroke-width="4"/>
</svg>
